solid OpenSCAD_Model
  facet normal -1 0 0
    outer loop
      vertex -41 -65 -1
      vertex -41 65 1
      vertex -41 65 -1
    endloop
  endfacet
  facet normal -1 -0 0
    outer loop
      vertex -41 65 1
      vertex -41 -65 -1
      vertex -41 -65 1
    endloop
  endfacet
  facet normal -0 0 1
    outer loop
      vertex -15.95 -15.95 1
      vertex 15.95 -25.95 1
      vertex 15.95 -15.95 1
    endloop
  endfacet
  facet normal 0 0 1
    outer loop
      vertex 15.95 -25.95 1
      vertex -15.95 -15.95 1
      vertex -15.95 -25.95 1
    endloop
  endfacet
  facet normal -0 0 1
    outer loop
      vertex -15.95 25.95 1
      vertex 15.95 15.95 1
      vertex 15.95 25.95 1
    endloop
  endfacet
  facet normal 0 0 1
    outer loop
      vertex 15.95 15.95 1
      vertex -15.95 25.95 1
      vertex -15.95 15.95 1
    endloop
  endfacet
  facet normal 0 0 1
    outer loop
      vertex 15.95 25.95 1
      vertex 41 65 1
      vertex 15.95 57.85 1
    endloop
  endfacet
  facet normal 0 0 1
    outer loop
      vertex 41 65 1
      vertex -15.95 57.85 1
      vertex 15.95 57.85 1
    endloop
  endfacet
  facet normal 0 0 1
    outer loop
      vertex -41 65 1
      vertex -15.95 25.95 1
      vertex -15.95 57.85 1
    endloop
  endfacet
  facet normal 0 0 1
    outer loop
      vertex -15.95 25.95 1
      vertex -41 65 1
      vertex -15.95 15.95 1
    endloop
  endfacet
  facet normal 0 0 1
    outer loop
      vertex -15.95 15.95 1
      vertex -41 65 1
      vertex -15.95 -15.95 1
    endloop
  endfacet
  facet normal 0 0 1
    outer loop
      vertex -41 -65 1
      vertex -15.95 -15.95 1
      vertex -41 65 1
    endloop
  endfacet
  facet normal 0 0 1
    outer loop
      vertex -15.95 -15.95 1
      vertex -41 -65 1
      vertex -15.95 -25.95 1
    endloop
  endfacet
  facet normal -0 0 1
    outer loop
      vertex -41 65 1
      vertex -15.95 57.85 1
      vertex 41 65 1
    endloop
  endfacet
  facet normal 0 0 1
    outer loop
      vertex 15.95 15.95 1
      vertex 41 65 1
      vertex 15.95 25.95 1
    endloop
  endfacet
  facet normal 0 0 1
    outer loop
      vertex 41 65 1
      vertex 15.95 15.95 1
      vertex 41 -65 1
    endloop
  endfacet
  facet normal -0 0 1
    outer loop
      vertex 15.95 -15.95 1
      vertex 41 -65 1
      vertex 15.95 15.95 1
    endloop
  endfacet
  facet normal -0 0 1
    outer loop
      vertex 15.95 -25.95 1
      vertex 41 -65 1
      vertex 15.95 -15.95 1
    endloop
  endfacet
  facet normal -0 0 1
    outer loop
      vertex 15.95 -57.85 1
      vertex 41 -65 1
      vertex 15.95 -25.95 1
    endloop
  endfacet
  facet normal -0 0 1
    outer loop
      vertex -15.95 -57.85 1
      vertex 41 -65 1
      vertex 15.95 -57.85 1
    endloop
  endfacet
  facet normal 0 0 1
    outer loop
      vertex -15.95 -57.85 1
      vertex -41 -65 1
      vertex 41 -65 1
    endloop
  endfacet
  facet normal 0 0 1
    outer loop
      vertex -15.95 -25.95 1
      vertex -41 -65 1
      vertex -15.95 -57.85 1
    endloop
  endfacet
  facet normal 1 -0 0
    outer loop
      vertex 41 -65 1
      vertex 41 65 -1
      vertex 41 65 1
    endloop
  endfacet
  facet normal 1 0 0
    outer loop
      vertex 41 65 -1
      vertex 41 -65 1
      vertex 41 -65 -1
    endloop
  endfacet
  facet normal 0 1 -0
    outer loop
      vertex 41 65 -1
      vertex -41 65 1
      vertex 41 65 1
    endloop
  endfacet
  facet normal 0 1 0
    outer loop
      vertex -41 65 1
      vertex 41 65 -1
      vertex -41 65 -1
    endloop
  endfacet
  facet normal 0 0 -1
    outer loop
      vertex -15.95 15.95 -1
      vertex 15.95 25.95 -1
      vertex 15.95 15.95 -1
    endloop
  endfacet
  facet normal -0 0 -1
    outer loop
      vertex 15.95 25.95 -1
      vertex -15.95 15.95 -1
      vertex -15.95 25.95 -1
    endloop
  endfacet
  facet normal 0 0 -1
    outer loop
      vertex -15.95 -25.95 -1
      vertex 15.95 -15.95 -1
      vertex 15.95 -25.95 -1
    endloop
  endfacet
  facet normal -0 0 -1
    outer loop
      vertex 15.95 -15.95 -1
      vertex -15.95 -25.95 -1
      vertex -15.95 -15.95 -1
    endloop
  endfacet
  facet normal 0 0 -1
    outer loop
      vertex 15.95 -25.95 -1
      vertex 41 -65 -1
      vertex 15.95 -57.85 -1
    endloop
  endfacet
  facet normal 0 0 -1
    outer loop
      vertex 41 -65 -1
      vertex -15.95 -57.85 -1
      vertex 15.95 -57.85 -1
    endloop
  endfacet
  facet normal 0 0 -1
    outer loop
      vertex -41 -65 -1
      vertex -15.95 -25.95 -1
      vertex -15.95 -57.85 -1
    endloop
  endfacet
  facet normal -0 0 -1
    outer loop
      vertex -15.95 -25.95 -1
      vertex -41 -65 -1
      vertex -15.95 -15.95 -1
    endloop
  endfacet
  facet normal -0 0 -1
    outer loop
      vertex -15.95 -15.95 -1
      vertex -41 -65 -1
      vertex -15.95 15.95 -1
    endloop
  endfacet
  facet normal 0 0 -1
    outer loop
      vertex -41 65 -1
      vertex -15.95 15.95 -1
      vertex -41 -65 -1
    endloop
  endfacet
  facet normal 0 0 -1
    outer loop
      vertex -15.95 15.95 -1
      vertex -41 65 -1
      vertex -15.95 25.95 -1
    endloop
  endfacet
  facet normal 0 0 -1
    outer loop
      vertex -41 -65 -1
      vertex -15.95 -57.85 -1
      vertex 41 -65 -1
    endloop
  endfacet
  facet normal 0 0 -1
    outer loop
      vertex 15.95 -15.95 -1
      vertex 41 -65 -1
      vertex 15.95 -25.95 -1
    endloop
  endfacet
  facet normal 0 0 -1
    outer loop
      vertex 41 -65 -1
      vertex 15.95 -15.95 -1
      vertex 41 65 -1
    endloop
  endfacet
  facet normal 0 0 -1
    outer loop
      vertex 15.95 15.95 -1
      vertex 41 65 -1
      vertex 15.95 -15.95 -1
    endloop
  endfacet
  facet normal 0 0 -1
    outer loop
      vertex 15.95 25.95 -1
      vertex 41 65 -1
      vertex 15.95 15.95 -1
    endloop
  endfacet
  facet normal 0 0 -1
    outer loop
      vertex 15.95 57.85 -1
      vertex 41 65 -1
      vertex 15.95 25.95 -1
    endloop
  endfacet
  facet normal 0 0 -1
    outer loop
      vertex -15.95 57.85 -1
      vertex 41 65 -1
      vertex 15.95 57.85 -1
    endloop
  endfacet
  facet normal 0 0 -1
    outer loop
      vertex -15.95 57.85 -1
      vertex -41 65 -1
      vertex 41 65 -1
    endloop
  endfacet
  facet normal 0 0 -1
    outer loop
      vertex -15.95 25.95 -1
      vertex -41 65 -1
      vertex -15.95 57.85 -1
    endloop
  endfacet
  facet normal 0 -1 0
    outer loop
      vertex -41 -65 -1
      vertex 41 -65 1
      vertex -41 -65 1
    endloop
  endfacet
  facet normal 0 -1 -0
    outer loop
      vertex 41 -65 1
      vertex -41 -65 -1
      vertex 41 -65 -1
    endloop
  endfacet
  facet normal 1 -0 0
    outer loop
      vertex -15.95 -15.95 1
      vertex -15.95 15.95 -1
      vertex -15.95 15.95 1
    endloop
  endfacet
  facet normal 1 0 0
    outer loop
      vertex -15.95 15.95 -1
      vertex -15.95 -15.95 1
      vertex -15.95 -15.95 -1
    endloop
  endfacet
  facet normal -1 0 0
    outer loop
      vertex 15.95 -15.95 -1
      vertex 15.95 15.95 1
      vertex 15.95 15.95 -1
    endloop
  endfacet
  facet normal -1 -0 0
    outer loop
      vertex 15.95 15.95 1
      vertex 15.95 -15.95 -1
      vertex 15.95 -15.95 1
    endloop
  endfacet
  facet normal 0 -1 0
    outer loop
      vertex -15.95 15.95 -1
      vertex 15.95 15.95 1
      vertex -15.95 15.95 1
    endloop
  endfacet
  facet normal 0 -1 -0
    outer loop
      vertex 15.95 15.95 1
      vertex -15.95 15.95 -1
      vertex 15.95 15.95 -1
    endloop
  endfacet
  facet normal 0 1 -0
    outer loop
      vertex 15.95 -15.95 -1
      vertex -15.95 -15.95 1
      vertex 15.95 -15.95 1
    endloop
  endfacet
  facet normal 0 1 0
    outer loop
      vertex -15.95 -15.95 1
      vertex 15.95 -15.95 -1
      vertex -15.95 -15.95 -1
    endloop
  endfacet
  facet normal 1 -0 0
    outer loop
      vertex -15.95 -57.85 1
      vertex -15.95 -25.95 -1
      vertex -15.95 -25.95 1
    endloop
  endfacet
  facet normal 1 0 0
    outer loop
      vertex -15.95 -25.95 -1
      vertex -15.95 -57.85 1
      vertex -15.95 -57.85 -1
    endloop
  endfacet
  facet normal -1 0 0
    outer loop
      vertex 15.95 -57.85 -1
      vertex 15.95 -25.95 1
      vertex 15.95 -25.95 -1
    endloop
  endfacet
  facet normal -1 -0 0
    outer loop
      vertex 15.95 -25.95 1
      vertex 15.95 -57.85 -1
      vertex 15.95 -57.85 1
    endloop
  endfacet
  facet normal 0 1 -0
    outer loop
      vertex 15.95 -57.85 -1
      vertex -15.95 -57.85 1
      vertex 15.95 -57.85 1
    endloop
  endfacet
  facet normal 0 1 0
    outer loop
      vertex -15.95 -57.85 1
      vertex 15.95 -57.85 -1
      vertex -15.95 -57.85 -1
    endloop
  endfacet
  facet normal 0 -1 0
    outer loop
      vertex -15.95 -25.95 -1
      vertex 15.95 -25.95 1
      vertex -15.95 -25.95 1
    endloop
  endfacet
  facet normal 0 -1 -0
    outer loop
      vertex 15.95 -25.95 1
      vertex -15.95 -25.95 -1
      vertex 15.95 -25.95 -1
    endloop
  endfacet
  facet normal 1 -0 0
    outer loop
      vertex -15.95 25.95 1
      vertex -15.95 57.85 -1
      vertex -15.95 57.85 1
    endloop
  endfacet
  facet normal 1 0 0
    outer loop
      vertex -15.95 57.85 -1
      vertex -15.95 25.95 1
      vertex -15.95 25.95 -1
    endloop
  endfacet
  facet normal -1 0 0
    outer loop
      vertex 15.95 25.95 -1
      vertex 15.95 57.85 1
      vertex 15.95 57.85 -1
    endloop
  endfacet
  facet normal -1 -0 0
    outer loop
      vertex 15.95 57.85 1
      vertex 15.95 25.95 -1
      vertex 15.95 25.95 1
    endloop
  endfacet
  facet normal 0 -1 0
    outer loop
      vertex -15.95 57.85 -1
      vertex 15.95 57.85 1
      vertex -15.95 57.85 1
    endloop
  endfacet
  facet normal 0 -1 -0
    outer loop
      vertex 15.95 57.85 1
      vertex -15.95 57.85 -1
      vertex 15.95 57.85 -1
    endloop
  endfacet
  facet normal 0 1 -0
    outer loop
      vertex 15.95 25.95 -1
      vertex -15.95 25.95 1
      vertex 15.95 25.95 1
    endloop
  endfacet
  facet normal 0 1 0
    outer loop
      vertex -15.95 25.95 1
      vertex 15.95 25.95 -1
      vertex -15.95 25.95 -1
    endloop
  endfacet
endsolid OpenSCAD_Model
