solid OpenSCAD_Model
  facet normal -1 0 0
    outer loop
      vertex 0 0 0
      vertex 0 15 2.5
      vertex 0 15 0
    endloop
  endfacet
  facet normal -1 -0 0
    outer loop
      vertex 0 15 2.5
      vertex 0 0 0
      vertex 0 0 2.5
    endloop
  endfacet
  facet normal 0 0 1
    outer loop
      vertex 80 15 2.5
      vertex 74.45 7.5 2.5
      vertex 80 0 2.5
    endloop
  endfacet
  facet normal 0 0 1
    outer loop
      vertex 80 15 2.5
      vertex 73.7158 9.02457 2.5
      vertex 74.45 7.5 2.5
    endloop
  endfacet
  facet normal 0 0 1
    outer loop
      vertex 80 15 2.5
      vertex 72.0661 9.40111 2.5
      vertex 73.7158 9.02457 2.5
    endloop
  endfacet
  facet normal 0 0 1
    outer loop
      vertex 70.7431 8.34607 2.5
      vertex 9.45 7.5 2.5
      vertex 70.7431 6.65393 2.5
    endloop
  endfacet
  facet normal -0 0 1
    outer loop
      vertex 8.71581 9.02457 2.5
      vertex 70.7431 8.34607 2.5
      vertex 72.0661 9.40111 2.5
    endloop
  endfacet
  facet normal 0 0 1
    outer loop
      vertex 8.71581 9.02457 2.5
      vertex 72.0661 9.40111 2.5
      vertex 80 15 2.5
    endloop
  endfacet
  facet normal 0 0 1
    outer loop
      vertex 70.7431 8.34607 2.5
      vertex 8.71581 9.02457 2.5
      vertex 9.45 7.5 2.5
    endloop
  endfacet
  facet normal -0 0 1
    outer loop
      vertex 0 15 2.5
      vertex 8.71581 9.02457 2.5
      vertex 80 15 2.5
    endloop
  endfacet
  facet normal 0 0 1
    outer loop
      vertex 5.74311 8.34607 2.5
      vertex 0 15 2.5
      vertex 5.74311 6.65393 2.5
    endloop
  endfacet
  facet normal 0 0 1
    outer loop
      vertex 7.06608 9.40111 2.5
      vertex 0 15 2.5
      vertex 5.74311 8.34607 2.5
    endloop
  endfacet
  facet normal 0 0 1
    outer loop
      vertex 8.71581 9.02457 2.5
      vertex 0 15 2.5
      vertex 7.06608 9.40111 2.5
    endloop
  endfacet
  facet normal -0 0 1
    outer loop
      vertex 73.7158 5.97543 2.5
      vertex 80 0 2.5
      vertex 74.45 7.5 2.5
    endloop
  endfacet
  facet normal -0 0 1
    outer loop
      vertex 72.0661 5.59889 2.5
      vertex 80 0 2.5
      vertex 73.7158 5.97543 2.5
    endloop
  endfacet
  facet normal 0 0 1
    outer loop
      vertex 8.71581 5.97543 2.5
      vertex 70.7431 6.65393 2.5
      vertex 9.45 7.5 2.5
    endloop
  endfacet
  facet normal 0 0 1
    outer loop
      vertex 70.7431 6.65393 2.5
      vertex 8.71581 5.97543 2.5
      vertex 72.0661 5.59889 2.5
    endloop
  endfacet
  facet normal 0 0 1
    outer loop
      vertex 72.0661 5.59889 2.5
      vertex 8.71581 5.97543 2.5
      vertex 80 0 2.5
    endloop
  endfacet
  facet normal 0 0 1
    outer loop
      vertex 0 0 2.5
      vertex 8.71581 5.97543 2.5
      vertex 7.06608 5.59889 2.5
    endloop
  endfacet
  facet normal 0 0 1
    outer loop
      vertex 8.71581 5.97543 2.5
      vertex 0 0 2.5
      vertex 80 0 2.5
    endloop
  endfacet
  facet normal 0 0 1
    outer loop
      vertex 5.74311 6.65393 2.5
      vertex 0 0 2.5
      vertex 7.06608 5.59889 2.5
    endloop
  endfacet
  facet normal 0 0 1
    outer loop
      vertex 0 0 2.5
      vertex 5.74311 6.65393 2.5
      vertex 0 15 2.5
    endloop
  endfacet
  facet normal 1 -0 0
    outer loop
      vertex 80 0 2.5
      vertex 80 15 0
      vertex 80 15 2.5
    endloop
  endfacet
  facet normal 1 0 0
    outer loop
      vertex 80 15 0
      vertex 80 0 2.5
      vertex 80 0 0
    endloop
  endfacet
  facet normal 0 0 -1
    outer loop
      vertex 80 0 0
      vertex 74.45 7.5 0
      vertex 80 15 0
    endloop
  endfacet
  facet normal 0 0 -1
    outer loop
      vertex 80 0 0
      vertex 73.7158 5.97543 0
      vertex 74.45 7.5 0
    endloop
  endfacet
  facet normal 0 0 -1
    outer loop
      vertex 80 0 0
      vertex 72.0661 5.59889 0
      vertex 73.7158 5.97543 0
    endloop
  endfacet
  facet normal 0 0 -1
    outer loop
      vertex 70.7431 6.65393 0
      vertex 9.45 7.5 0
      vertex 70.7431 8.34607 0
    endloop
  endfacet
  facet normal 0 0 -1
    outer loop
      vertex 8.71581 5.97543 0
      vertex 70.7431 6.65393 0
      vertex 72.0661 5.59889 0
    endloop
  endfacet
  facet normal 0 0 -1
    outer loop
      vertex 8.71581 5.97543 0
      vertex 72.0661 5.59889 0
      vertex 80 0 0
    endloop
  endfacet
  facet normal -0 0 -1
    outer loop
      vertex 70.7431 6.65393 0
      vertex 8.71581 5.97543 0
      vertex 9.45 7.5 0
    endloop
  endfacet
  facet normal 0 0 -1
    outer loop
      vertex 0 0 0
      vertex 8.71581 5.97543 0
      vertex 80 0 0
    endloop
  endfacet
  facet normal -0 0 -1
    outer loop
      vertex 5.74311 6.65393 0
      vertex 0 0 0
      vertex 5.74311 8.34607 0
    endloop
  endfacet
  facet normal -0 0 -1
    outer loop
      vertex 7.06608 5.59889 0
      vertex 0 0 0
      vertex 5.74311 6.65393 0
    endloop
  endfacet
  facet normal 0 0 -1
    outer loop
      vertex 8.71581 5.97543 0
      vertex 0 0 0
      vertex 7.06608 5.59889 0
    endloop
  endfacet
  facet normal 0 0 -1
    outer loop
      vertex 73.7158 9.02457 0
      vertex 80 15 0
      vertex 74.45 7.5 0
    endloop
  endfacet
  facet normal 0 0 -1
    outer loop
      vertex 72.0661 9.40111 0
      vertex 80 15 0
      vertex 73.7158 9.02457 0
    endloop
  endfacet
  facet normal 0 0 -1
    outer loop
      vertex 8.71581 9.02457 0
      vertex 70.7431 8.34607 0
      vertex 9.45 7.5 0
    endloop
  endfacet
  facet normal 0 0 -1
    outer loop
      vertex 70.7431 8.34607 0
      vertex 8.71581 9.02457 0
      vertex 72.0661 9.40111 0
    endloop
  endfacet
  facet normal -0 0 -1
    outer loop
      vertex 72.0661 9.40111 0
      vertex 8.71581 9.02457 0
      vertex 80 15 0
    endloop
  endfacet
  facet normal 0 0 -1
    outer loop
      vertex 0 15 0
      vertex 8.71581 9.02457 0
      vertex 7.06608 9.40111 0
    endloop
  endfacet
  facet normal 0 0 -1
    outer loop
      vertex 8.71581 9.02457 0
      vertex 0 15 0
      vertex 80 15 0
    endloop
  endfacet
  facet normal 0 0 -1
    outer loop
      vertex 5.74311 8.34607 0
      vertex 0 15 0
      vertex 7.06608 9.40111 0
    endloop
  endfacet
  facet normal 0 0 -1
    outer loop
      vertex 0 15 0
      vertex 5.74311 8.34607 0
      vertex 0 0 0
    endloop
  endfacet
  facet normal 0 -1 0
    outer loop
      vertex 0 0 0
      vertex 80 0 2.5
      vertex 0 0 2.5
    endloop
  endfacet
  facet normal 0 -1 -0
    outer loop
      vertex 80 0 2.5
      vertex 0 0 0
      vertex 80 0 0
    endloop
  endfacet
  facet normal 0 1 -0
    outer loop
      vertex 80 15 0
      vertex 0 15 2.5
      vertex 80 15 2.5
    endloop
  endfacet
  facet normal 0 1 0
    outer loop
      vertex 0 15 2.5
      vertex 80 15 0
      vertex 0 15 0
    endloop
  endfacet
  facet normal -0.900969 -0.433884 0
    outer loop
      vertex 9.45 7.5 0
      vertex 8.71581 9.02457 2.5
      vertex 8.71581 9.02457 0
    endloop
  endfacet
  facet normal -0.900969 -0.433884 0
    outer loop
      vertex 8.71581 9.02457 2.5
      vertex 9.45 7.5 0
      vertex 9.45 7.5 2.5
    endloop
  endfacet
  facet normal 1 -0 0
    outer loop
      vertex 5.74311 6.65393 2.5
      vertex 5.74311 8.34607 0
      vertex 5.74311 8.34607 2.5
    endloop
  endfacet
  facet normal 1 0 0
    outer loop
      vertex 5.74311 8.34607 0
      vertex 5.74311 6.65393 2.5
      vertex 5.74311 6.65393 0
    endloop
  endfacet
  facet normal 0.62349 -0.781832 0
    outer loop
      vertex 5.74311 8.34607 0
      vertex 7.06608 9.40111 2.5
      vertex 5.74311 8.34607 2.5
    endloop
  endfacet
  facet normal 0.62349 -0.781832 0
    outer loop
      vertex 7.06608 9.40111 2.5
      vertex 5.74311 8.34607 0
      vertex 7.06608 9.40111 0
    endloop
  endfacet
  facet normal -0.222521 -0.974928 0
    outer loop
      vertex 7.06608 9.40111 0
      vertex 8.71581 9.02457 2.5
      vertex 7.06608 9.40111 2.5
    endloop
  endfacet
  facet normal -0.222521 -0.974928 -0
    outer loop
      vertex 8.71581 9.02457 2.5
      vertex 7.06608 9.40111 0
      vertex 8.71581 9.02457 0
    endloop
  endfacet
  facet normal -0.900969 0.433884 0
    outer loop
      vertex 8.71581 5.97543 0
      vertex 9.45 7.5 2.5
      vertex 9.45 7.5 0
    endloop
  endfacet
  facet normal -0.900969 0.433884 0
    outer loop
      vertex 9.45 7.5 2.5
      vertex 8.71581 5.97543 0
      vertex 8.71581 5.97543 2.5
    endloop
  endfacet
  facet normal 0.62349 0.781832 -0
    outer loop
      vertex 7.06608 5.59889 0
      vertex 5.74311 6.65393 2.5
      vertex 7.06608 5.59889 2.5
    endloop
  endfacet
  facet normal 0.62349 0.781832 0
    outer loop
      vertex 5.74311 6.65393 2.5
      vertex 7.06608 5.59889 0
      vertex 5.74311 6.65393 0
    endloop
  endfacet
  facet normal -0.222521 0.974928 0
    outer loop
      vertex 8.71581 5.97543 0
      vertex 7.06608 5.59889 2.5
      vertex 8.71581 5.97543 2.5
    endloop
  endfacet
  facet normal -0.222521 0.974928 0
    outer loop
      vertex 7.06608 5.59889 2.5
      vertex 8.71581 5.97543 0
      vertex 7.06608 5.59889 0
    endloop
  endfacet
  facet normal -0.900969 -0.433883 0
    outer loop
      vertex 74.45 7.5 0
      vertex 73.7158 9.02457 2.5
      vertex 73.7158 9.02457 0
    endloop
  endfacet
  facet normal -0.900969 -0.433883 0
    outer loop
      vertex 73.7158 9.02457 2.5
      vertex 74.45 7.5 0
      vertex 74.45 7.5 2.5
    endloop
  endfacet
  facet normal 1 -0 0
    outer loop
      vertex 70.7431 6.65393 2.5
      vertex 70.7431 8.34607 0
      vertex 70.7431 8.34607 2.5
    endloop
  endfacet
  facet normal 1 0 0
    outer loop
      vertex 70.7431 8.34607 0
      vertex 70.7431 6.65393 2.5
      vertex 70.7431 6.65393 0
    endloop
  endfacet
  facet normal 0.623489 -0.781832 0
    outer loop
      vertex 70.7431 8.34607 0
      vertex 72.0661 9.40111 2.5
      vertex 70.7431 8.34607 2.5
    endloop
  endfacet
  facet normal 0.623489 -0.781832 0
    outer loop
      vertex 72.0661 9.40111 2.5
      vertex 70.7431 8.34607 0
      vertex 72.0661 9.40111 0
    endloop
  endfacet
  facet normal -0.222521 -0.974928 0
    outer loop
      vertex 72.0661 9.40111 0
      vertex 73.7158 9.02457 2.5
      vertex 72.0661 9.40111 2.5
    endloop
  endfacet
  facet normal -0.222521 -0.974928 -0
    outer loop
      vertex 73.7158 9.02457 2.5
      vertex 72.0661 9.40111 0
      vertex 73.7158 9.02457 0
    endloop
  endfacet
  facet normal -0.90097 0.433882 0
    outer loop
      vertex 73.7158 5.97543 0
      vertex 74.45 7.5 2.5
      vertex 74.45 7.5 0
    endloop
  endfacet
  facet normal -0.90097 0.433882 0
    outer loop
      vertex 74.45 7.5 2.5
      vertex 73.7158 5.97543 0
      vertex 73.7158 5.97543 2.5
    endloop
  endfacet
  facet normal 0.623489 0.781832 -0
    outer loop
      vertex 72.0661 5.59889 0
      vertex 70.7431 6.65393 2.5
      vertex 72.0661 5.59889 2.5
    endloop
  endfacet
  facet normal 0.623489 0.781832 0
    outer loop
      vertex 70.7431 6.65393 2.5
      vertex 72.0661 5.59889 0
      vertex 70.7431 6.65393 0
    endloop
  endfacet
  facet normal -0.222521 0.974928 0
    outer loop
      vertex 73.7158 5.97543 0
      vertex 72.0661 5.59889 2.5
      vertex 73.7158 5.97543 2.5
    endloop
  endfacet
  facet normal -0.222521 0.974928 0
    outer loop
      vertex 72.0661 5.59889 2.5
      vertex 73.7158 5.97543 0
      vertex 72.0661 5.59889 0
    endloop
  endfacet
endsolid OpenSCAD_Model
