solid OpenSCAD_Model
  facet normal -1 0 0
    outer loop
      vertex 0 20 0
      vertex 0 4 4
      vertex 0 20 4
    endloop
  endfacet
  facet normal -1 -0 0
    outer loop
      vertex 0 4 4
      vertex 0 0 0
      vertex 0 4 29.5
    endloop
  endfacet
  facet normal -1 0 0
    outer loop
      vertex 0 0 0
      vertex 0 4 4
      vertex 0 20 0
    endloop
  endfacet
  facet normal -1 0 0
    outer loop
      vertex 0 4 29.5
      vertex 0 20 33.5
      vertex 0 20 29.5
    endloop
  endfacet
  facet normal -1 0 0
    outer loop
      vertex 0 4 29.5
      vertex 0 0 33.5
      vertex 0 20 33.5
    endloop
  endfacet
  facet normal -1 0 0
    outer loop
      vertex 0 0 33.5
      vertex 0 4 29.5
      vertex 0 0 0
    endloop
  endfacet
  facet normal -0 0 1
    outer loop
      vertex 0 20 33.5
      vertex 20 0 33.5
      vertex 20 20 33.5
    endloop
  endfacet
  facet normal 0 0 1
    outer loop
      vertex 20 0 33.5
      vertex 0 20 33.5
      vertex 0 0 33.5
    endloop
  endfacet
  facet normal 1 0 0
    outer loop
      vertex 20 20 33.5
      vertex 20 4 29.5
      vertex 20 20 29.5
    endloop
  endfacet
  facet normal 1 0 0
    outer loop
      vertex 20 4 29.5
      vertex 20 0 33.5
      vertex 20 4 4
    endloop
  endfacet
  facet normal 1 -0 0
    outer loop
      vertex 20 0 33.5
      vertex 20 4 29.5
      vertex 20 20 33.5
    endloop
  endfacet
  facet normal 1 -0 0
    outer loop
      vertex 20 4 4
      vertex 20 20 0
      vertex 20 20 4
    endloop
  endfacet
  facet normal 1 0 0
    outer loop
      vertex 20 4 4
      vertex 20 0 0
      vertex 20 20 0
    endloop
  endfacet
  facet normal 1 0 0
    outer loop
      vertex 20 0 0
      vertex 20 4 4
      vertex 20 0 33.5
    endloop
  endfacet
  facet normal 0 1 0
    outer loop
      vertex 20 4 29.5
      vertex 10 4 12.425
      vertex 0 4 29.5
    endloop
  endfacet
  facet normal 0 1 0
    outer loop
      vertex 20 4 29.5
      vertex 11.7147 4 11.7147
      vertex 10 4 12.425
    endloop
  endfacet
  facet normal 0 1 -0
    outer loop
      vertex 20 4 4
      vertex 11.7147 4 11.7147
      vertex 20 4 29.5
    endloop
  endfacet
  facet normal 0 1 0
    outer loop
      vertex 12.425 4 10
      vertex 20 4 4
      vertex 7.575 4 10
    endloop
  endfacet
  facet normal 0 1 0
    outer loop
      vertex 11.7147 4 11.7147
      vertex 20 4 4
      vertex 12.425 4 10
    endloop
  endfacet
  facet normal 0 1 -0
    outer loop
      vertex 8.28527 4 11.7147
      vertex 0 4 29.5
      vertex 10 4 12.425
    endloop
  endfacet
  facet normal 0 1 0
    outer loop
      vertex 0 4 4
      vertex 8.28527 4 11.7147
      vertex 7.575 4 10
    endloop
  endfacet
  facet normal 0 1 0
    outer loop
      vertex 8.28527 4 11.7147
      vertex 0 4 4
      vertex 0 4 29.5
    endloop
  endfacet
  facet normal 0 1 0
    outer loop
      vertex 0 4 4
      vertex 7.575 4 10
      vertex 20 4 4
    endloop
  endfacet
  facet normal 0 0 -1
    outer loop
      vertex 0 0 0
      vertex 20 20 0
      vertex 20 0 0
    endloop
  endfacet
  facet normal -0 0 -1
    outer loop
      vertex 20 20 0
      vertex 0 0 0
      vertex 0 20 0
    endloop
  endfacet
  facet normal 0 -1 0
    outer loop
      vertex 0 0 33.5
      vertex 10 0 12.425
      vertex 20 0 33.5
    endloop
  endfacet
  facet normal 0 -1 0
    outer loop
      vertex 0 0 33.5
      vertex 8.28527 0 11.7147
      vertex 10 0 12.425
    endloop
  endfacet
  facet normal 0 -1 0
    outer loop
      vertex 0 0 33.5
      vertex 7.575 0 10
      vertex 8.28527 0 11.7147
    endloop
  endfacet
  facet normal 0 -1 -0
    outer loop
      vertex 8.28527 0 8.28527
      vertex 0 0 0
      vertex 10 0 7.575
    endloop
  endfacet
  facet normal 0 -1 -0
    outer loop
      vertex 7.575 0 10
      vertex 0 0 0
      vertex 8.28527 0 8.28527
    endloop
  endfacet
  facet normal 0 -1 0
    outer loop
      vertex 0 0 0
      vertex 7.575 0 10
      vertex 0 0 33.5
    endloop
  endfacet
  facet normal 0 -1 0
    outer loop
      vertex 11.7147 0 11.7147
      vertex 20 0 33.5
      vertex 10 0 12.425
    endloop
  endfacet
  facet normal 0 -1 0
    outer loop
      vertex 12.425 0 10
      vertex 20 0 33.5
      vertex 11.7147 0 11.7147
    endloop
  endfacet
  facet normal 0 -1 0
    outer loop
      vertex 20 0 0
      vertex 10 0 7.575
      vertex 0 0 0
    endloop
  endfacet
  facet normal 0 -1 0
    outer loop
      vertex 12.425 0 10
      vertex 20 0 0
      vertex 20 0 33.5
    endloop
  endfacet
  facet normal 0 -1 0
    outer loop
      vertex 11.7147 0 8.28527
      vertex 20 0 0
      vertex 12.425 0 10
    endloop
  endfacet
  facet normal 0 -1 0
    outer loop
      vertex 10 0 7.575
      vertex 20 0 0
      vertex 11.7147 0 8.28527
    endloop
  endfacet
  facet normal -0 0 1
    outer loop
      vertex 0 20 4
      vertex 20 4 4
      vertex 20 20 4
    endloop
  endfacet
  facet normal 0 0 1
    outer loop
      vertex 20 4 4
      vertex 0 20 4
      vertex 0 4 4
    endloop
  endfacet
  facet normal 0 1 -0
    outer loop
      vertex 20 20 0
      vertex 0 20 4
      vertex 20 20 4
    endloop
  endfacet
  facet normal 0 1 0
    outer loop
      vertex 0 20 4
      vertex 20 20 0
      vertex 0 20 0
    endloop
  endfacet
  facet normal 0 0 -1
    outer loop
      vertex 0 4 29.5
      vertex 20 20 29.5
      vertex 20 4 29.5
    endloop
  endfacet
  facet normal -0 0 -1
    outer loop
      vertex 20 20 29.5
      vertex 0 4 29.5
      vertex 0 20 29.5
    endloop
  endfacet
  facet normal 0 1 -0
    outer loop
      vertex 20 20 29.5
      vertex 0 20 33.5
      vertex 20 20 33.5
    endloop
  endfacet
  facet normal 0 1 0
    outer loop
      vertex 0 20 33.5
      vertex 20 20 29.5
      vertex 0 20 29.5
    endloop
  endfacet
  facet normal -0.923879 0 -0.382684
    outer loop
      vertex 12.425 0 10
      vertex 11.7147 4 11.7147
      vertex 12.425 4 10
    endloop
  endfacet
  facet normal -0.923879 -0 -0.382684
    outer loop
      vertex 11.7147 4 11.7147
      vertex 12.425 0 10
      vertex 11.7147 0 11.7147
    endloop
  endfacet
  facet normal -0.382684 0 -0.923879
    outer loop
      vertex 10 0 12.425
      vertex 11.7147 4 11.7147
      vertex 11.7147 0 11.7147
    endloop
  endfacet
  facet normal -0.382684 0 -0.923879
    outer loop
      vertex 11.7147 4 11.7147
      vertex 10 0 12.425
      vertex 10 4 12.425
    endloop
  endfacet
  facet normal 0 -1 3.93268e-07
    outer loop
      vertex 10 4 7.575
      vertex 12.425 4 10
      vertex 7.575 4 10
    endloop
  endfacet
  facet normal 0.382683 0 0.92388
    outer loop
      vertex 8.28527 4 8.28527
      vertex 10 0 7.575
      vertex 10 4 7.575
    endloop
  endfacet
  facet normal 0.382683 0 0.92388
    outer loop
      vertex 10 0 7.575
      vertex 8.28527 4 8.28527
      vertex 8.28527 0 8.28527
    endloop
  endfacet
  facet normal 0.382683 0 -0.92388
    outer loop
      vertex 8.28527 0 11.7147
      vertex 10 4 12.425
      vertex 10 0 12.425
    endloop
  endfacet
  facet normal 0.382683 0 -0.92388
    outer loop
      vertex 10 4 12.425
      vertex 8.28527 0 11.7147
      vertex 8.28527 4 11.7147
    endloop
  endfacet
  facet normal -2.78082e-07 -1 6.7135e-07
    outer loop
      vertex 11.7147 4 8.28527
      vertex 12.425 4 10
      vertex 10 4 7.575
    endloop
  endfacet
  facet normal 2.78082e-07 -1 6.7135e-07
    outer loop
      vertex 8.28527 4 8.28527
      vertex 10 4 7.575
      vertex 7.575 4 10
    endloop
  endfacet
  facet normal 0.923879 0 -0.382684
    outer loop
      vertex 8.28527 0 11.7147
      vertex 7.575 4 10
      vertex 8.28527 4 11.7147
    endloop
  endfacet
  facet normal 0.923879 0 -0.382684
    outer loop
      vertex 7.575 4 10
      vertex 8.28527 0 11.7147
      vertex 7.575 0 10
    endloop
  endfacet
  facet normal 0.92388 -0 0.382683
    outer loop
      vertex 7.575 0 10
      vertex 8.28527 4 8.28527
      vertex 7.575 4 10
    endloop
  endfacet
  facet normal 0.92388 0 0.382683
    outer loop
      vertex 8.28527 4 8.28527
      vertex 7.575 0 10
      vertex 8.28527 0 8.28527
    endloop
  endfacet
  facet normal -0.382684 0 0.923879
    outer loop
      vertex 10 4 7.575
      vertex 11.7147 0 8.28527
      vertex 11.7147 4 8.28527
    endloop
  endfacet
  facet normal -0.382684 0 0.923879
    outer loop
      vertex 11.7147 0 8.28527
      vertex 10 4 7.575
      vertex 10 0 7.575
    endloop
  endfacet
  facet normal -0.92388 0 0.382683
    outer loop
      vertex 11.7147 0 8.28527
      vertex 12.425 4 10
      vertex 11.7147 4 8.28527
    endloop
  endfacet
  facet normal -0.92388 0 0.382683
    outer loop
      vertex 12.425 4 10
      vertex 11.7147 0 8.28527
      vertex 12.425 0 10
    endloop
  endfacet
endsolid OpenSCAD_Model
