solid OpenSCAD_Model
  facet normal -1 0 0
    outer loop
      vertex 0 20 0
      vertex 0 3 3
      vertex 0 20 3
    endloop
  endfacet
  facet normal -1 0 0
    outer loop
      vertex 0 0 0
      vertex 0 3 17
      vertex 0 3 3
    endloop
  endfacet
  facet normal -1 0 0
    outer loop
      vertex 0 0 32.5
      vertex 0 3 17
      vertex 0 0 0
    endloop
  endfacet
  facet normal -1 0 0
    outer loop
      vertex 0 3 17
      vertex 0 0 32.5
      vertex 0 3 20
    endloop
  endfacet
  facet normal -1 0 0
    outer loop
      vertex 0 0 0
      vertex 0 3 3
      vertex 0 20 0
    endloop
  endfacet
  facet normal -1 0 0
    outer loop
      vertex 0 3 17
      vertex 0 20 20
      vertex 0 20 17
    endloop
  endfacet
  facet normal -1 -0 0
    outer loop
      vertex 0 20 20
      vertex 0 3 17
      vertex 0 3 20
    endloop
  endfacet
  facet normal -1 0 0
    outer loop
      vertex 0 3 29.5
      vertex 0 20 32.5
      vertex 0 20 29.5
    endloop
  endfacet
  facet normal -1 0 0
    outer loop
      vertex 0 3 29.5
      vertex 0 0 32.5
      vertex 0 20 32.5
    endloop
  endfacet
  facet normal -1 0 0
    outer loop
      vertex 0 3 20
      vertex 0 0 32.5
      vertex 0 3 29.5
    endloop
  endfacet
  facet normal -0 0 1
    outer loop
      vertex 0 20 32.5
      vertex 20 0 32.5
      vertex 20 20 32.5
    endloop
  endfacet
  facet normal 0 0 1
    outer loop
      vertex 20 0 32.5
      vertex 0 20 32.5
      vertex 0 0 32.5
    endloop
  endfacet
  facet normal 1 0 0
    outer loop
      vertex 20 20 32.5
      vertex 20 3 29.5
      vertex 20 20 29.5
    endloop
  endfacet
  facet normal 1 0 0
    outer loop
      vertex 20 0 32.5
      vertex 20 3 20
      vertex 20 3 29.5
    endloop
  endfacet
  facet normal 1 0 0
    outer loop
      vertex 20 3 20
      vertex 20 0 32.5
      vertex 20 3 17
    endloop
  endfacet
  facet normal 1 0 0
    outer loop
      vertex 20 0 0
      vertex 20 3 17
      vertex 20 0 32.5
    endloop
  endfacet
  facet normal 1 -0 0
    outer loop
      vertex 20 0 32.5
      vertex 20 3 29.5
      vertex 20 20 32.5
    endloop
  endfacet
  facet normal 1 -0 0
    outer loop
      vertex 20 3 20
      vertex 20 20 17
      vertex 20 20 20
    endloop
  endfacet
  facet normal 1 0 0
    outer loop
      vertex 20 20 17
      vertex 20 3 20
      vertex 20 3 17
    endloop
  endfacet
  facet normal 1 -0 0
    outer loop
      vertex 20 3 3
      vertex 20 20 0
      vertex 20 20 3
    endloop
  endfacet
  facet normal 1 0 0
    outer loop
      vertex 20 3 3
      vertex 20 0 0
      vertex 20 20 0
    endloop
  endfacet
  facet normal 1 0 0
    outer loop
      vertex 20 3 17
      vertex 20 0 0
      vertex 20 3 3
    endloop
  endfacet
  facet normal 0 1 0
    outer loop
      vertex 20 3 17
      vertex 10 3 12.425
      vertex 0 3 17
    endloop
  endfacet
  facet normal 0 1 0
    outer loop
      vertex 20 3 17
      vertex 11.7147 3 11.7147
      vertex 10 3 12.425
    endloop
  endfacet
  facet normal 0 1 0
    outer loop
      vertex 20 3 17
      vertex 12.425 3 10
      vertex 11.7147 3 11.7147
    endloop
  endfacet
  facet normal 0 1 0
    outer loop
      vertex 12.425 3 10
      vertex 20 3 3
      vertex 7.575 3 10
    endloop
  endfacet
  facet normal 0 1 -0
    outer loop
      vertex 20 3 3
      vertex 12.425 3 10
      vertex 20 3 17
    endloop
  endfacet
  facet normal 0 1 -0
    outer loop
      vertex 8.28527 3 11.7147
      vertex 0 3 17
      vertex 10 3 12.425
    endloop
  endfacet
  facet normal 0 1 -0
    outer loop
      vertex 7.575 3 10
      vertex 0 3 17
      vertex 8.28527 3 11.7147
    endloop
  endfacet
  facet normal 0 1 0
    outer loop
      vertex 7.575 3 10
      vertex 0 3 3
      vertex 0 3 17
    endloop
  endfacet
  facet normal 0 1 0
    outer loop
      vertex 0 3 3
      vertex 7.575 3 10
      vertex 20 3 3
    endloop
  endfacet
  facet normal 0 1 -0
    outer loop
      vertex 20 3 20
      vertex 0 3 29.5
      vertex 20 3 29.5
    endloop
  endfacet
  facet normal 0 1 0
    outer loop
      vertex 0 3 29.5
      vertex 20 3 20
      vertex 0 3 20
    endloop
  endfacet
  facet normal 0 0 -1
    outer loop
      vertex 0 0 0
      vertex 20 20 0
      vertex 20 0 0
    endloop
  endfacet
  facet normal -0 0 -1
    outer loop
      vertex 20 20 0
      vertex 0 0 0
      vertex 0 20 0
    endloop
  endfacet
  facet normal 0 -1 0
    outer loop
      vertex 0 0 32.5
      vertex 10 0 12.425
      vertex 20 0 32.5
    endloop
  endfacet
  facet normal 0 -1 0
    outer loop
      vertex 0 0 32.5
      vertex 8.28527 0 11.7147
      vertex 10 0 12.425
    endloop
  endfacet
  facet normal 0 -1 0
    outer loop
      vertex 0 0 32.5
      vertex 7.575 0 10
      vertex 8.28527 0 11.7147
    endloop
  endfacet
  facet normal 0 -1 -0
    outer loop
      vertex 8.28527 0 8.28527
      vertex 0 0 0
      vertex 10 0 7.575
    endloop
  endfacet
  facet normal 0 -1 -0
    outer loop
      vertex 7.575 0 10
      vertex 0 0 0
      vertex 8.28527 0 8.28527
    endloop
  endfacet
  facet normal 0 -1 0
    outer loop
      vertex 0 0 0
      vertex 7.575 0 10
      vertex 0 0 32.5
    endloop
  endfacet
  facet normal 0 -1 0
    outer loop
      vertex 11.7147 0 11.7147
      vertex 20 0 32.5
      vertex 10 0 12.425
    endloop
  endfacet
  facet normal 0 -1 0
    outer loop
      vertex 12.425 0 10
      vertex 20 0 32.5
      vertex 11.7147 0 11.7147
    endloop
  endfacet
  facet normal 0 -1 0
    outer loop
      vertex 20 0 0
      vertex 10 0 7.575
      vertex 0 0 0
    endloop
  endfacet
  facet normal 0 -1 0
    outer loop
      vertex 12.425 0 10
      vertex 20 0 0
      vertex 20 0 32.5
    endloop
  endfacet
  facet normal 0 -1 0
    outer loop
      vertex 11.7147 0 8.28527
      vertex 20 0 0
      vertex 12.425 0 10
    endloop
  endfacet
  facet normal 0 -1 0
    outer loop
      vertex 10 0 7.575
      vertex 20 0 0
      vertex 11.7147 0 8.28527
    endloop
  endfacet
  facet normal -0 0 1
    outer loop
      vertex 0 20 3
      vertex 20 3 3
      vertex 20 20 3
    endloop
  endfacet
  facet normal 0 0 1
    outer loop
      vertex 20 3 3
      vertex 0 20 3
      vertex 0 3 3
    endloop
  endfacet
  facet normal 0 1 -0
    outer loop
      vertex 20 20 0
      vertex 0 20 3
      vertex 20 20 3
    endloop
  endfacet
  facet normal 0 1 0
    outer loop
      vertex 0 20 3
      vertex 20 20 0
      vertex 0 20 0
    endloop
  endfacet
  facet normal 0 1 -0
    outer loop
      vertex 20 20 29.5
      vertex 0 20 32.5
      vertex 20 20 32.5
    endloop
  endfacet
  facet normal 0 1 0
    outer loop
      vertex 0 20 32.5
      vertex 20 20 29.5
      vertex 0 20 29.5
    endloop
  endfacet
  facet normal 0 0 -1
    outer loop
      vertex 0 3 29.5
      vertex 20 20 29.5
      vertex 20 3 29.5
    endloop
  endfacet
  facet normal -0 0 -1
    outer loop
      vertex 20 20 29.5
      vertex 0 3 29.5
      vertex 0 20 29.5
    endloop
  endfacet
  facet normal -0.923879 0 -0.382684
    outer loop
      vertex 12.425 0 10
      vertex 11.7147 3 11.7147
      vertex 12.425 3 10
    endloop
  endfacet
  facet normal -0.923879 -0 -0.382684
    outer loop
      vertex 11.7147 3 11.7147
      vertex 12.425 0 10
      vertex 11.7147 0 11.7147
    endloop
  endfacet
  facet normal -0.382684 0 -0.923879
    outer loop
      vertex 10 0 12.425
      vertex 11.7147 3 11.7147
      vertex 11.7147 0 11.7147
    endloop
  endfacet
  facet normal -0.382684 0 -0.923879
    outer loop
      vertex 11.7147 3 11.7147
      vertex 10 0 12.425
      vertex 10 3 12.425
    endloop
  endfacet
  facet normal 0 -1 3.93268e-07
    outer loop
      vertex 10 3 7.575
      vertex 12.425 3 10
      vertex 7.575 3 10
    endloop
  endfacet
  facet normal 0.382683 0 0.92388
    outer loop
      vertex 8.28527 3 8.28527
      vertex 10 0 7.575
      vertex 10 3 7.575
    endloop
  endfacet
  facet normal 0.382683 0 0.92388
    outer loop
      vertex 10 0 7.575
      vertex 8.28527 3 8.28527
      vertex 8.28527 0 8.28527
    endloop
  endfacet
  facet normal 0.382683 0 -0.92388
    outer loop
      vertex 8.28527 0 11.7147
      vertex 10 3 12.425
      vertex 10 0 12.425
    endloop
  endfacet
  facet normal 0.382683 0 -0.92388
    outer loop
      vertex 10 3 12.425
      vertex 8.28527 0 11.7147
      vertex 8.28527 3 11.7147
    endloop
  endfacet
  facet normal -2.78082e-07 -1 6.7135e-07
    outer loop
      vertex 11.7147 3 8.28527
      vertex 12.425 3 10
      vertex 10 3 7.575
    endloop
  endfacet
  facet normal 2.78082e-07 -1 6.7135e-07
    outer loop
      vertex 8.28527 3 8.28527
      vertex 10 3 7.575
      vertex 7.575 3 10
    endloop
  endfacet
  facet normal 0.923879 0 -0.382684
    outer loop
      vertex 8.28527 0 11.7147
      vertex 7.575 3 10
      vertex 8.28527 3 11.7147
    endloop
  endfacet
  facet normal 0.923879 0 -0.382684
    outer loop
      vertex 7.575 3 10
      vertex 8.28527 0 11.7147
      vertex 7.575 0 10
    endloop
  endfacet
  facet normal 0.92388 -0 0.382683
    outer loop
      vertex 7.575 0 10
      vertex 8.28527 3 8.28527
      vertex 7.575 3 10
    endloop
  endfacet
  facet normal 0.92388 0 0.382683
    outer loop
      vertex 8.28527 3 8.28527
      vertex 7.575 0 10
      vertex 8.28527 0 8.28527
    endloop
  endfacet
  facet normal -0.382684 0 0.923879
    outer loop
      vertex 10 3 7.575
      vertex 11.7147 0 8.28527
      vertex 11.7147 3 8.28527
    endloop
  endfacet
  facet normal -0.382684 0 0.923879
    outer loop
      vertex 11.7147 0 8.28527
      vertex 10 3 7.575
      vertex 10 0 7.575
    endloop
  endfacet
  facet normal -0.92388 0 0.382683
    outer loop
      vertex 11.7147 0 8.28527
      vertex 12.425 3 10
      vertex 11.7147 3 8.28527
    endloop
  endfacet
  facet normal -0.92388 0 0.382683
    outer loop
      vertex 12.425 3 10
      vertex 11.7147 0 8.28527
      vertex 12.425 0 10
    endloop
  endfacet
  facet normal -0 0 1
    outer loop
      vertex 0 20 20
      vertex 20 3 20
      vertex 20 20 20
    endloop
  endfacet
  facet normal 0 0 1
    outer loop
      vertex 20 3 20
      vertex 0 20 20
      vertex 0 3 20
    endloop
  endfacet
  facet normal 0 1 -0
    outer loop
      vertex 20 20 17
      vertex 0 20 20
      vertex 20 20 20
    endloop
  endfacet
  facet normal 0 1 0
    outer loop
      vertex 0 20 20
      vertex 20 20 17
      vertex 0 20 17
    endloop
  endfacet
  facet normal 0 0 -1
    outer loop
      vertex 0 3 17
      vertex 20 20 17
      vertex 20 3 17
    endloop
  endfacet
  facet normal -0 0 -1
    outer loop
      vertex 20 20 17
      vertex 0 3 17
      vertex 0 20 17
    endloop
  endfacet
endsolid OpenSCAD_Model
