solid OpenSCAD_Model
  facet normal -1 0 0
    outer loop
      vertex 0 15 0
      vertex 0 3 3
      vertex 0 15 3
    endloop
  endfacet
  facet normal -1 0 0
    outer loop
      vertex 0 0 0
      vertex 0 3 17
      vertex 0 3 3
    endloop
  endfacet
  facet normal -1 0 0
    outer loop
      vertex 0 0 32.5
      vertex 0 3 17
      vertex 0 0 0
    endloop
  endfacet
  facet normal -1 0 0
    outer loop
      vertex 0 3 17
      vertex 0 0 32.5
      vertex 0 3 20
    endloop
  endfacet
  facet normal -1 0 0
    outer loop
      vertex 0 0 0
      vertex 0 3 3
      vertex 0 15 0
    endloop
  endfacet
  facet normal -1 0 0
    outer loop
      vertex 0 3 17
      vertex 0 15 20
      vertex 0 15 17
    endloop
  endfacet
  facet normal -1 -0 0
    outer loop
      vertex 0 15 20
      vertex 0 3 17
      vertex 0 3 20
    endloop
  endfacet
  facet normal -1 0 0
    outer loop
      vertex 0 3 29.5
      vertex 0 15 32.5
      vertex 0 15 29.5
    endloop
  endfacet
  facet normal -1 0 0
    outer loop
      vertex 0 3 29.5
      vertex 0 0 32.5
      vertex 0 15 32.5
    endloop
  endfacet
  facet normal -1 0 0
    outer loop
      vertex 0 3 20
      vertex 0 0 32.5
      vertex 0 3 29.5
    endloop
  endfacet
  facet normal -0 0 1
    outer loop
      vertex 0 15 32.5
      vertex 15 0 32.5
      vertex 15 15 32.5
    endloop
  endfacet
  facet normal 0 0 1
    outer loop
      vertex 15 0 32.5
      vertex 0 15 32.5
      vertex 0 0 32.5
    endloop
  endfacet
  facet normal 1 0 0
    outer loop
      vertex 15 15 32.5
      vertex 15 3 29.5
      vertex 15 15 29.5
    endloop
  endfacet
  facet normal 1 0 0
    outer loop
      vertex 15 0 32.5
      vertex 15 3 20
      vertex 15 3 29.5
    endloop
  endfacet
  facet normal 1 0 0
    outer loop
      vertex 15 3 20
      vertex 15 0 32.5
      vertex 15 3 17
    endloop
  endfacet
  facet normal 1 0 0
    outer loop
      vertex 15 0 0
      vertex 15 3 17
      vertex 15 0 32.5
    endloop
  endfacet
  facet normal 1 -0 0
    outer loop
      vertex 15 0 32.5
      vertex 15 3 29.5
      vertex 15 15 32.5
    endloop
  endfacet
  facet normal 1 -0 0
    outer loop
      vertex 15 3 20
      vertex 15 15 17
      vertex 15 15 20
    endloop
  endfacet
  facet normal 1 0 0
    outer loop
      vertex 15 15 17
      vertex 15 3 20
      vertex 15 3 17
    endloop
  endfacet
  facet normal 1 -0 0
    outer loop
      vertex 15 3 3
      vertex 15 15 0
      vertex 15 15 3
    endloop
  endfacet
  facet normal 1 0 0
    outer loop
      vertex 15 3 3
      vertex 15 0 0
      vertex 15 15 0
    endloop
  endfacet
  facet normal 1 0 0
    outer loop
      vertex 15 3 17
      vertex 15 0 0
      vertex 15 3 3
    endloop
  endfacet
  facet normal 0 1 0
    outer loop
      vertex 15 3 17
      vertex 7.5 3 12.425
      vertex 0 3 17
    endloop
  endfacet
  facet normal 0 1 0
    outer loop
      vertex 15 3 17
      vertex 9.21473 3 11.7147
      vertex 7.5 3 12.425
    endloop
  endfacet
  facet normal 0 1 0
    outer loop
      vertex 15 3 17
      vertex 9.50673 3 11.0098
      vertex 9.21473 3 11.7147
    endloop
  endfacet
  facet normal 0 1 0
    outer loop
      vertex 15 3 17
      vertex 9.925 3 10
      vertex 9.50673 3 11.0098
    endloop
  endfacet
  facet normal 0 1 -0
    outer loop
      vertex 15 3 3
      vertex 9.925 3 10
      vertex 15 3 17
    endloop
  endfacet
  facet normal 0 1 0
    outer loop
      vertex 9.925 3 10
      vertex 15 3 3
      vertex 9.633 3 9.29505
    endloop
  endfacet
  facet normal 0 1 0
    outer loop
      vertex 9.21473 3 8.28527
      vertex 15 3 3
      vertex 7.5 3 7.575
    endloop
  endfacet
  facet normal 0 1 0
    outer loop
      vertex 9.633 3 9.29505
      vertex 15 3 3
      vertex 9.21473 3 8.28527
    endloop
  endfacet
  facet normal 0 1 -0
    outer loop
      vertex 5.78527 3 11.7147
      vertex 0 3 17
      vertex 7.5 3 12.425
    endloop
  endfacet
  facet normal 0 1 -0
    outer loop
      vertex 5.49327 3 11.0098
      vertex 0 3 17
      vertex 5.78527 3 11.7147
    endloop
  endfacet
  facet normal 0 1 -0
    outer loop
      vertex 5.075 3 10
      vertex 0 3 17
      vertex 5.49327 3 11.0098
    endloop
  endfacet
  facet normal 0 1 0
    outer loop
      vertex 0 3 3
      vertex 5.075 3 10
      vertex 5.367 3 9.29505
    endloop
  endfacet
  facet normal 0 1 0
    outer loop
      vertex 0 3 3
      vertex 5.367 3 9.29505
      vertex 5.78527 3 8.28527
    endloop
  endfacet
  facet normal 0 1 0
    outer loop
      vertex 0 3 3
      vertex 7.5 3 7.575
      vertex 15 3 3
    endloop
  endfacet
  facet normal 0 1 0
    outer loop
      vertex 5.075 3 10
      vertex 0 3 3
      vertex 0 3 17
    endloop
  endfacet
  facet normal 0 1 0
    outer loop
      vertex 7.5 3 7.575
      vertex 0 3 3
      vertex 5.78527 3 8.28527
    endloop
  endfacet
  facet normal 0 1 -0
    outer loop
      vertex 15 3 20
      vertex 0 3 29.5
      vertex 15 3 29.5
    endloop
  endfacet
  facet normal 0 1 0
    outer loop
      vertex 0 3 29.5
      vertex 15 3 20
      vertex 0 3 20
    endloop
  endfacet
  facet normal 0 0 -1
    outer loop
      vertex 15 0 0
      vertex 9.45 7.5 0
      vertex 15 15 0
    endloop
  endfacet
  facet normal 0 0 -1
    outer loop
      vertex 15 0 0
      vertex 8.71581 5.97543 0
      vertex 9.45 7.5 0
    endloop
  endfacet
  facet normal 0 0 -1
    outer loop
      vertex 15 0 0
      vertex 7.06608 5.59889 0
      vertex 8.71581 5.97543 0
    endloop
  endfacet
  facet normal -0 0 -1
    outer loop
      vertex 5.74311 6.65393 0
      vertex 0 0 0
      vertex 5.74311 8.34607 0
    endloop
  endfacet
  facet normal -0 0 -1
    outer loop
      vertex 7.06608 5.59889 0
      vertex 0 0 0
      vertex 5.74311 6.65393 0
    endloop
  endfacet
  facet normal 0 0 -1
    outer loop
      vertex 0 0 0
      vertex 7.06608 5.59889 0
      vertex 15 0 0
    endloop
  endfacet
  facet normal 0 0 -1
    outer loop
      vertex 8.71581 9.02457 0
      vertex 15 15 0
      vertex 9.45 7.5 0
    endloop
  endfacet
  facet normal 0 0 -1
    outer loop
      vertex 7.06608 9.40111 0
      vertex 15 15 0
      vertex 8.71581 9.02457 0
    endloop
  endfacet
  facet normal 0 0 -1
    outer loop
      vertex 7.06608 9.40111 0
      vertex 0 15 0
      vertex 15 15 0
    endloop
  endfacet
  facet normal 0 0 -1
    outer loop
      vertex 5.74311 8.34607 0
      vertex 0 15 0
      vertex 7.06608 9.40111 0
    endloop
  endfacet
  facet normal 0 0 -1
    outer loop
      vertex 0 15 0
      vertex 5.74311 8.34607 0
      vertex 0 0 0
    endloop
  endfacet
  facet normal 0 -1 0
    outer loop
      vertex 0 0 32.5
      vertex 7.00354 0 17.258
      vertex 15 0 32.5
    endloop
  endfacet
  facet normal 0 -1 0
    outer loop
      vertex 0 0 32.5
      vertex 5.06375 0 16.8549
      vertex 7.00354 0 17.258
    endloop
  endfacet
  facet normal 0 -1 0
    outer loop
      vertex 0 0 32.5
      vertex 3.30465 0 15.9435
      vertex 5.06375 0 16.8549
    endloop
  endfacet
  facet normal 0 -1 0
    outer loop
      vertex 0 0 32.5
      vertex 1.8567 0 14.5912
      vertex 3.30465 0 15.9435
    endloop
  endfacet
  facet normal 0 -1 0
    outer loop
      vertex 0 0 32.5
      vertex 0.827288 0 12.8984
      vertex 1.8567 0 14.5912
    endloop
  endfacet
  facet normal 0 -1 0
    outer loop
      vertex 0 0 32.5
      vertex 0.292759 0 10.9906
      vertex 0.827288 0 12.8984
    endloop
  endfacet
  facet normal 0 -1 0
    outer loop
      vertex 0 0 0
      vertex 0.292759 0 10.9906
      vertex 0 0 32.5
    endloop
  endfacet
  facet normal 0 -1 -0
    outer loop
      vertex 5.06375 0 3.14505
      vertex 0 0 0
      vertex 7.00354 0 2.74196
    endloop
  endfacet
  facet normal 0 -1 -0
    outer loop
      vertex 3.30465 0 4.05654
      vertex 0 0 0
      vertex 5.06375 0 3.14505
    endloop
  endfacet
  facet normal 0 -1 -0
    outer loop
      vertex 1.8567 0 5.40883
      vertex 0 0 0
      vertex 3.30465 0 4.05654
    endloop
  endfacet
  facet normal 0 -1 -0
    outer loop
      vertex 0.827288 0 7.10163
      vertex 0 0 0
      vertex 1.8567 0 5.40883
    endloop
  endfacet
  facet normal 0 -1 -0
    outer loop
      vertex 0.292759 0 9.00939
      vertex 0 0 0
      vertex 0.827288 0 7.10163
    endloop
  endfacet
  facet normal 0 -1 -0
    outer loop
      vertex 0.292759 0 10.9906
      vertex 0 0 0
      vertex 0.292759 0 9.00939
    endloop
  endfacet
  facet normal 0 -1 0
    outer loop
      vertex 8.98014 0 17.1228
      vertex 15 0 32.5
      vertex 7.00354 0 17.258
    endloop
  endfacet
  facet normal 0 -1 0
    outer loop
      vertex 10.847 0 16.4594
      vertex 15 0 32.5
      vertex 8.98014 0 17.1228
    endloop
  endfacet
  facet normal 0 -1 0
    outer loop
      vertex 12.4656 0 15.3168
      vertex 15 0 32.5
      vertex 10.847 0 16.4594
    endloop
  endfacet
  facet normal 0 -1 0
    outer loop
      vertex 13.7159 0 13.78
      vertex 15 0 32.5
      vertex 12.4656 0 15.3168
    endloop
  endfacet
  facet normal 0 -1 0
    outer loop
      vertex 14.5052 0 11.9628
      vertex 15 0 32.5
      vertex 13.7159 0 13.78
    endloop
  endfacet
  facet normal 0 -1 0
    outer loop
      vertex 14.775 0 10
      vertex 15 0 32.5
      vertex 14.5052 0 11.9628
    endloop
  endfacet
  facet normal 0 -1 0
    outer loop
      vertex 15 0 0
      vertex 7.00354 0 2.74196
      vertex 0 0 0
    endloop
  endfacet
  facet normal 0 -1 0
    outer loop
      vertex 14.775 0 10
      vertex 15 0 0
      vertex 15 0 32.5
    endloop
  endfacet
  facet normal 0 -1 0
    outer loop
      vertex 14.5052 0 8.03723
      vertex 15 0 0
      vertex 14.775 0 10
    endloop
  endfacet
  facet normal 0 -1 0
    outer loop
      vertex 13.7159 0 6.22003
      vertex 15 0 0
      vertex 14.5052 0 8.03723
    endloop
  endfacet
  facet normal 0 -1 0
    outer loop
      vertex 12.4656 0 4.68317
      vertex 15 0 0
      vertex 13.7159 0 6.22003
    endloop
  endfacet
  facet normal 0 -1 0
    outer loop
      vertex 10.847 0 3.54063
      vertex 15 0 0
      vertex 12.4656 0 4.68317
    endloop
  endfacet
  facet normal 0 -1 0
    outer loop
      vertex 8.98014 0 2.87716
      vertex 15 0 0
      vertex 10.847 0 3.54063
    endloop
  endfacet
  facet normal 0 -1 0
    outer loop
      vertex 7.00354 0 2.74196
      vertex 15 0 0
      vertex 8.98014 0 2.87716
    endloop
  endfacet
  facet normal 0 0 1
    outer loop
      vertex 15 15 3
      vertex 9.45 7.5 3
      vertex 15 3 3
    endloop
  endfacet
  facet normal 0 0 1
    outer loop
      vertex 15 15 3
      vertex 8.71581 9.02457 3
      vertex 9.45 7.5 3
    endloop
  endfacet
  facet normal 0 0 1
    outer loop
      vertex 15 15 3
      vertex 7.06608 9.40111 3
      vertex 8.71581 9.02457 3
    endloop
  endfacet
  facet normal 0 0 1
    outer loop
      vertex 0 3 3
      vertex 5.74311 8.34607 3
      vertex 0 15 3
    endloop
  endfacet
  facet normal 0 0 1
    outer loop
      vertex 7.06608 9.40111 3
      vertex 0 15 3
      vertex 5.74311 8.34607 3
    endloop
  endfacet
  facet normal -0 0 1
    outer loop
      vertex 0 15 3
      vertex 7.06608 9.40111 3
      vertex 15 15 3
    endloop
  endfacet
  facet normal -0 0 1
    outer loop
      vertex 8.71581 5.97543 3
      vertex 15 3 3
      vertex 9.45 7.5 3
    endloop
  endfacet
  facet normal -0 0 1
    outer loop
      vertex 7.06608 5.59889 3
      vertex 15 3 3
      vertex 8.71581 5.97543 3
    endloop
  endfacet
  facet normal 0 0 1
    outer loop
      vertex 7.06608 5.59889 3
      vertex 0 3 3
      vertex 15 3 3
    endloop
  endfacet
  facet normal 0 0 1
    outer loop
      vertex 5.74311 6.65393 3
      vertex 0 3 3
      vertex 7.06608 5.59889 3
    endloop
  endfacet
  facet normal 0 0 1
    outer loop
      vertex 5.74311 8.34607 3
      vertex 0 3 3
      vertex 5.74311 6.65393 3
    endloop
  endfacet
  facet normal 0 1 -0
    outer loop
      vertex 15 15 0
      vertex 0 15 3
      vertex 15 15 3
    endloop
  endfacet
  facet normal 0 1 0
    outer loop
      vertex 0 15 3
      vertex 15 15 0
      vertex 0 15 0
    endloop
  endfacet
  facet normal 0 1 -0
    outer loop
      vertex 15 15 29.5
      vertex 0 15 32.5
      vertex 15 15 32.5
    endloop
  endfacet
  facet normal 0 1 0
    outer loop
      vertex 0 15 32.5
      vertex 15 15 29.5
      vertex 0 15 29.5
    endloop
  endfacet
  facet normal 0 0 -1
    outer loop
      vertex 0 3 29.5
      vertex 15 15 29.5
      vertex 15 3 29.5
    endloop
  endfacet
  facet normal -0 0 -1
    outer loop
      vertex 15 15 29.5
      vertex 0 3 29.5
      vertex 0 15 29.5
    endloop
  endfacet
  facet normal -0.900969 -0.433884 0
    outer loop
      vertex 9.45 7.5 0
      vertex 8.71581 9.02457 3
      vertex 8.71581 9.02457 0
    endloop
  endfacet
  facet normal -0.900969 -0.433884 0
    outer loop
      vertex 8.71581 9.02457 3
      vertex 9.45 7.5 0
      vertex 9.45 7.5 3
    endloop
  endfacet
  facet normal 1 -0 0
    outer loop
      vertex 5.74311 6.65393 3
      vertex 5.74311 8.34607 0
      vertex 5.74311 8.34607 3
    endloop
  endfacet
  facet normal 1 0 0
    outer loop
      vertex 5.74311 8.34607 0
      vertex 5.74311 6.65393 3
      vertex 5.74311 6.65393 0
    endloop
  endfacet
  facet normal 0.62349 -0.781832 0
    outer loop
      vertex 5.74311 8.34607 0
      vertex 7.06608 9.40111 3
      vertex 5.74311 8.34607 3
    endloop
  endfacet
  facet normal 0.62349 -0.781832 0
    outer loop
      vertex 7.06608 9.40111 3
      vertex 5.74311 8.34607 0
      vertex 7.06608 9.40111 0
    endloop
  endfacet
  facet normal -0.222521 -0.974928 0
    outer loop
      vertex 7.06608 9.40111 0
      vertex 8.71581 9.02457 3
      vertex 7.06608 9.40111 3
    endloop
  endfacet
  facet normal -0.222521 -0.974928 -0
    outer loop
      vertex 8.71581 9.02457 3
      vertex 7.06608 9.40111 0
      vertex 8.71581 9.02457 0
    endloop
  endfacet
  facet normal -0.900969 0.433884 0
    outer loop
      vertex 8.71581 5.97543 0
      vertex 9.45 7.5 3
      vertex 9.45 7.5 0
    endloop
  endfacet
  facet normal -0.900969 0.433884 0
    outer loop
      vertex 9.45 7.5 3
      vertex 8.71581 5.97543 0
      vertex 8.71581 5.97543 3
    endloop
  endfacet
  facet normal 0.62349 0.781832 -0
    outer loop
      vertex 7.06608 5.59889 0
      vertex 5.74311 6.65393 3
      vertex 7.06608 5.59889 3
    endloop
  endfacet
  facet normal 0.62349 0.781832 0
    outer loop
      vertex 5.74311 6.65393 3
      vertex 7.06608 5.59889 0
      vertex 5.74311 6.65393 0
    endloop
  endfacet
  facet normal -0.222521 0.974928 0
    outer loop
      vertex 8.71581 5.97543 0
      vertex 7.06608 5.59889 3
      vertex 8.71581 5.97543 3
    endloop
  endfacet
  facet normal -0.222521 0.974928 0
    outer loop
      vertex 7.06608 5.59889 3
      vertex 8.71581 5.97543 0
      vertex 7.06608 5.59889 0
    endloop
  endfacet
  facet normal -0 0 1
    outer loop
      vertex 0 15 20
      vertex 15 3 20
      vertex 15 15 20
    endloop
  endfacet
  facet normal 0 0 1
    outer loop
      vertex 15 3 20
      vertex 0 15 20
      vertex 0 3 20
    endloop
  endfacet
  facet normal 0 0 -1
    outer loop
      vertex 0 3 17
      vertex 15 15 17
      vertex 15 3 17
    endloop
  endfacet
  facet normal -0 0 -1
    outer loop
      vertex 15 15 17
      vertex 0 3 17
      vertex 0 15 17
    endloop
  endfacet
  facet normal 0 1 -0
    outer loop
      vertex 15 15 17
      vertex 0 15 20
      vertex 15 15 20
    endloop
  endfacet
  facet normal 0 1 0
    outer loop
      vertex 0 15 20
      vertex 15 15 17
      vertex 0 15 17
    endloop
  endfacet
  facet normal -0.985719 -0.168399 0
    outer loop
      vertex 2.21469 -11.25 9.27355
      vertex 0.292759 0 10.9906
      vertex 0.292759 0 9.00939
    endloop
  endfacet
  facet normal -0.985719 -0.168399 0
    outer loop
      vertex 0.292759 0 10.9906
      vertex 2.21469 -11.25 9.27355
      vertex 2.21469 -11.25 10.7264
    endloop
  endfacet
  facet normal 0.976538 -0.168399 0.134222
    outer loop
      vertex 14.775 0 10
      vertex 12.6372 -11.25 11.4394
      vertex 12.835 -11.25 10
    endloop
  endfacet
  facet normal 0.976538 -0.168399 0.134222
    outer loop
      vertex 14.5052 0 11.9628
      vertex 12.6372 -11.25 11.4394
      vertex 14.775 0 10
    endloop
  endfacet
  facet normal 0.0672678 -0.168398 -0.983421
    outer loop
      vertex 8.58544 -11.25 4.77659
      vertex 7.00354 0 2.74196
      vertex 8.98014 0 2.87716
    endloop
  endfacet
  facet normal 0.904113 -0.168399 0.392712
    outer loop
      vertex 13.7159 0 13.78
      vertex 12.0583 -11.25 12.772
      vertex 12.6372 -11.25 11.4394
    endloop
  endfacet
  facet normal -0.20055 -0.168399 0.965102
    outer loop
      vertex 7.00354 0 17.258
      vertex 5.06375 0 16.8549
      vertex 7.13593 -11.25 15.3226
    endloop
  endfacet
  facet normal 0.568445 -0.168399 0.805302
    outer loop
      vertex 12.4656 0 15.3168
      vertex 10.847 0 16.4594
      vertex 11.1414 -11.25 13.899
    endloop
  endfacet
  facet normal -0.949166 -0.168399 -0.265944
    outer loop
      vertex 2.60668 -11.25 7.87453
      vertex 0.292759 0 9.00939
      vertex 0.827288 0 7.10163
    endloop
  endfacet
  facet normal 0.330097 -0.168399 0.928805
    outer loop
      vertex 8.98014 0 17.1228
      vertex 8.58544 -11.25 15.2234
      vertex 10.847 0 16.4594
    endloop
  endfacet
  facet normal 0.904113 -0.168399 0.392711
    outer loop
      vertex 13.7159 0 13.78
      vertex 12.6372 -11.25 11.4394
      vertex 14.5052 0 11.9628
    endloop
  endfacet
  facet normal -0.672805 -0.168399 0.720399
    outer loop
      vertex 4.42341 -11.25 14.3585
      vertex 3.30465 0 15.9435
      vertex 3.36158 -11.25 13.3669
    endloop
  endfacet
  facet normal 0.0672675 -0.168399 0.983421
    outer loop
      vertex 8.58544 -11.25 15.2234
      vertex 7.00354 0 17.258
      vertex 7.13593 -11.25 15.3226
    endloop
  endfacet
  facet normal -0.453495 -0.168399 0.875205
    outer loop
      vertex 5.06375 0 16.8549
      vertex 4.42341 -11.25 14.3585
      vertex 5.71342 -11.25 15.027
    endloop
  endfacet
  facet normal -0.672806 -0.168399 0.720399
    outer loop
      vertex 3.30465 0 15.9435
      vertex 1.8567 0 14.5912
      vertex 3.36158 -11.25 13.3669
    endloop
  endfacet
  facet normal -1.1193e-06 -1 2.16016e-06
    outer loop
      vertex 4.42341 -11.25 14.3585
      vertex 3.36158 -11.25 13.3669
      vertex 5.71342 -11.25 15.027
    endloop
  endfacet
  facet normal -0.453495 -0.168399 -0.875205
    outer loop
      vertex 4.42341 -11.25 5.64147
      vertex 3.30465 0 4.05654
      vertex 5.06375 0 3.14505
    endloop
  endfacet
  facet normal 0.764633 -0.168399 -0.622075
    outer loop
      vertex 13.7159 0 6.22003
      vertex 11.1414 -11.25 6.10099
      vertex 12.4656 0 4.68317
    endloop
  endfacet
  facet normal 0.330097 -0.168398 -0.928805
    outer loop
      vertex 10.847 0 3.54063
      vertex 8.58544 -11.25 4.77659
      vertex 8.98014 0 2.87716
    endloop
  endfacet
  facet normal 0.904113 -0.168399 -0.392712
    outer loop
      vertex 12.6372 -11.25 8.56063
      vertex 12.0583 -11.25 7.22802
      vertex 13.7159 0 6.22003
    endloop
  endfacet
  facet normal 0.764633 -0.168399 0.622075
    outer loop
      vertex 13.7159 0 13.78
      vertex 11.1414 -11.25 13.899
      vertex 12.0583 -11.25 12.772
    endloop
  endfacet
  facet normal 0.764633 -0.168399 0.622075
    outer loop
      vertex 12.4656 0 15.3168
      vertex 11.1414 -11.25 13.899
      vertex 13.7159 0 13.78
    endloop
  endfacet
  facet normal 5.67453e-08 -1 8.29592e-07
    outer loop
      vertex 8.58544 -11.25 15.2234
      vertex 7.13593 -11.25 15.3226
      vertex 11.1414 -11.25 13.899
    endloop
  endfacet
  facet normal 0.330098 -0.168399 0.928804
    outer loop
      vertex 10.847 0 16.4594
      vertex 8.58544 -11.25 15.2234
      vertex 9.95445 -11.25 14.7369
    endloop
  endfacet
  facet normal 0.0672673 -0.168399 0.983421
    outer loop
      vertex 8.98014 0 17.1228
      vertex 7.00354 0 17.258
      vertex 8.58544 -11.25 15.2234
    endloop
  endfacet
  facet normal -0.842217 -0.168399 0.512164
    outer loop
      vertex 3.36158 -11.25 13.3669
      vertex 1.8567 0 14.5912
      vertex 2.60668 -11.25 12.1255
    endloop
  endfacet
  facet normal -0.453495 -0.168399 0.875205
    outer loop
      vertex 5.06375 0 16.8549
      vertex 3.30465 0 15.9435
      vertex 4.42341 -11.25 14.3585
    endloop
  endfacet
  facet normal 0 -1 0
    outer loop
      vertex 7.5 -11.25 12.425
      vertex 11.1414 -11.25 13.899
      vertex 3.36158 -11.25 13.3669
    endloop
  endfacet
  facet normal 0 -1 0
    outer loop
      vertex 9.21473 -11.25 11.7147
      vertex 11.1414 -11.25 13.899
      vertex 7.5 -11.25 12.425
    endloop
  endfacet
  facet normal 0 -1 0
    outer loop
      vertex 5.78527 -11.25 11.7147
      vertex 3.36158 -11.25 13.3669
      vertex 2.60668 -11.25 12.1255
    endloop
  endfacet
  facet normal 0 -1 0
    outer loop
      vertex 3.36158 -11.25 13.3669
      vertex 5.78527 -11.25 11.7147
      vertex 7.5 -11.25 12.425
    endloop
  endfacet
  facet normal 0 -1 0
    outer loop
      vertex 5.19338 -11.25 10.2858
      vertex 2.60668 -11.25 12.1255
      vertex 2.21469 -11.25 10.7264
    endloop
  endfacet
  facet normal 0 -1 0
    outer loop
      vertex 2.60668 -11.25 12.1255
      vertex 5.19338 -11.25 10.2858
      vertex 5.78527 -11.25 11.7147
    endloop
  endfacet
  facet normal 0 -1 0
    outer loop
      vertex 2.21469 -11.25 10.7264
      vertex 5.075 -11.25 10
      vertex 5.19338 -11.25 10.2858
    endloop
  endfacet
  facet normal 0 -1 0
    outer loop
      vertex 2.21469 -11.25 9.27355
      vertex 5.075 -11.25 10
      vertex 2.21469 -11.25 10.7264
    endloop
  endfacet
  facet normal 0 -1 0
    outer loop
      vertex 2.60668 -11.25 7.87453
      vertex 5.075 -11.25 10
      vertex 2.21469 -11.25 9.27355
    endloop
  endfacet
  facet normal 0 -1 -0
    outer loop
      vertex 5.075 -11.25 10
      vertex 2.60668 -11.25 7.87453
      vertex 5.66689 -11.25 8.57105
    endloop
  endfacet
  facet normal 0 -1 0
    outer loop
      vertex 3.36158 -11.25 6.63315
      vertex 5.66689 -11.25 8.57105
      vertex 2.60668 -11.25 7.87453
    endloop
  endfacet
  facet normal 0 -1 -0
    outer loop
      vertex 5.66689 -11.25 8.57105
      vertex 3.36158 -11.25 6.63315
      vertex 5.78527 -11.25 8.28527
    endloop
  endfacet
  facet normal 0 -1 0
    outer loop
      vertex 4.42341 -11.25 5.64147
      vertex 5.78527 -11.25 8.28527
      vertex 3.36158 -11.25 6.63315
    endloop
  endfacet
  facet normal 0 -1 0
    outer loop
      vertex 5.71342 -11.25 4.97304
      vertex 5.78527 -11.25 8.28527
      vertex 4.42341 -11.25 5.64147
    endloop
  endfacet
  facet normal 0 -1 0
    outer loop
      vertex 7.5 -11.25 7.575
      vertex 11.1414 -11.25 6.10099
      vertex 12.0583 -11.25 7.22802
    endloop
  endfacet
  facet normal 0 -1 -0
    outer loop
      vertex 5.78527 -11.25 8.28527
      vertex 5.71342 -11.25 4.97304
      vertex 7.5 -11.25 7.575
    endloop
  endfacet
  facet normal 0 -1 0
    outer loop
      vertex 7.5 -11.25 7.575
      vertex 9.95445 -11.25 5.26313
      vertex 11.1414 -11.25 6.10099
    endloop
  endfacet
  facet normal 0 -1 0
    outer loop
      vertex 7.13593 -11.25 4.67744
      vertex 7.5 -11.25 7.575
      vertex 5.71342 -11.25 4.97304
    endloop
  endfacet
  facet normal 0 -1 0
    outer loop
      vertex 7.5 -11.25 7.575
      vertex 8.58544 -11.25 4.77659
      vertex 9.95445 -11.25 5.26313
    endloop
  endfacet
  facet normal 0 -1 -0
    outer loop
      vertex 7.5 -11.25 7.575
      vertex 7.13593 -11.25 4.67744
      vertex 8.58544 -11.25 4.77659
    endloop
  endfacet
  facet normal 0 -1 -0
    outer loop
      vertex 11.1414 -11.25 13.899
      vertex 9.21473 -11.25 11.7147
      vertex 12.0583 -11.25 12.772
    endloop
  endfacet
  facet normal 0 -1 0
    outer loop
      vertex 9.80662 -11.25 10.2858
      vertex 12.0583 -11.25 12.772
      vertex 9.21473 -11.25 11.7147
    endloop
  endfacet
  facet normal 0 -1 -0
    outer loop
      vertex 12.0583 -11.25 12.772
      vertex 9.80662 -11.25 10.2858
      vertex 12.6372 -11.25 11.4394
    endloop
  endfacet
  facet normal 0 -1 0
    outer loop
      vertex 9.925 -11.25 10
      vertex 12.6372 -11.25 11.4394
      vertex 9.80662 -11.25 10.2858
    endloop
  endfacet
  facet normal 0 -1 0
    outer loop
      vertex 9.925 -11.25 10
      vertex 12.835 -11.25 10
      vertex 12.6372 -11.25 11.4394
    endloop
  endfacet
  facet normal 0 -1 0
    outer loop
      vertex 12.6372 -11.25 8.56063
      vertex 9.925 -11.25 10
      vertex 9.33311 -11.25 8.57105
    endloop
  endfacet
  facet normal 0 -1 0
    outer loop
      vertex 9.925 -11.25 10
      vertex 12.6372 -11.25 8.56063
      vertex 12.835 -11.25 10
    endloop
  endfacet
  facet normal 0 -1 0
    outer loop
      vertex 12.0583 -11.25 7.22802
      vertex 9.33311 -11.25 8.57105
      vertex 9.21473 -11.25 8.28527
    endloop
  endfacet
  facet normal 0 -1 0
    outer loop
      vertex 12.0583 -11.25 7.22802
      vertex 9.21473 -11.25 8.28527
      vertex 7.5 -11.25 7.575
    endloop
  endfacet
  facet normal 0 -1 0
    outer loop
      vertex 9.33311 -11.25 8.57105
      vertex 12.0583 -11.25 7.22802
      vertex 12.6372 -11.25 8.56063
    endloop
  endfacet
  facet normal -0.842217 -0.168399 -0.512164
    outer loop
      vertex 2.60668 -11.25 7.87453
      vertex 0.827288 0 7.10163
      vertex 1.8567 0 5.40883
    endloop
  endfacet
  facet normal -0.672805 -0.168399 -0.720399
    outer loop
      vertex 3.36158 -11.25 6.63315
      vertex 3.30465 0 4.05654
      vertex 4.42341 -11.25 5.64147
    endloop
  endfacet
  facet normal -0.949166 -0.168399 -0.265944
    outer loop
      vertex 2.21469 -11.25 9.27355
      vertex 0.292759 0 9.00939
      vertex 2.60668 -11.25 7.87453
    endloop
  endfacet
  facet normal -0.453495 -0.168399 -0.875205
    outer loop
      vertex 5.71342 -11.25 4.97304
      vertex 4.42341 -11.25 5.64147
      vertex 5.06375 0 3.14505
    endloop
  endfacet
  facet normal -0.200551 -0.168399 -0.965102
    outer loop
      vertex 5.71342 -11.25 4.97304
      vertex 5.06375 0 3.14505
      vertex 7.13593 -11.25 4.67744
    endloop
  endfacet
  facet normal 0.330098 -0.168399 -0.928804
    outer loop
      vertex 9.95445 -11.25 5.26313
      vertex 8.58544 -11.25 4.77659
      vertex 10.847 0 3.54063
    endloop
  endfacet
  facet normal 0.764633 -0.168399 -0.622075
    outer loop
      vertex 12.0583 -11.25 7.22802
      vertex 11.1414 -11.25 6.10099
      vertex 13.7159 0 6.22003
    endloop
  endfacet
  facet normal 0.904113 -0.168399 -0.392711
    outer loop
      vertex 14.5052 0 8.03723
      vertex 12.6372 -11.25 8.56063
      vertex 13.7159 0 6.22003
    endloop
  endfacet
  facet normal 8.14739e-07 -1 2.29245e-06
    outer loop
      vertex 9.95445 -11.25 14.7369
      vertex 8.58544 -11.25 15.2234
      vertex 11.1414 -11.25 13.899
    endloop
  endfacet
  facet normal 0.568445 -0.168399 0.805303
    outer loop
      vertex 10.847 0 16.4594
      vertex 9.95445 -11.25 14.7369
      vertex 11.1414 -11.25 13.899
    endloop
  endfacet
  facet normal -3.84281e-08 -1 5.61799e-07
    outer loop
      vertex 7.13593 -11.25 15.3226
      vertex 3.36158 -11.25 13.3669
      vertex 11.1414 -11.25 13.899
    endloop
  endfacet
  facet normal -0.949166 -0.168399 0.265944
    outer loop
      vertex 0.827288 0 12.8984
      vertex 0.292759 0 10.9906
      vertex 2.60668 -11.25 12.1255
    endloop
  endfacet
  facet normal -0.842217 -0.168399 0.512164
    outer loop
      vertex 1.8567 0 14.5912
      vertex 0.827288 0 12.8984
      vertex 2.60668 -11.25 12.1255
    endloop
  endfacet
  facet normal -0.949166 -0.168399 0.265944
    outer loop
      vertex 2.60668 -11.25 12.1255
      vertex 0.292759 0 10.9906
      vertex 2.21469 -11.25 10.7264
    endloop
  endfacet
  facet normal -0.842217 -0.168399 -0.512164
    outer loop
      vertex 2.60668 -11.25 7.87453
      vertex 1.8567 0 5.40883
      vertex 3.36158 -11.25 6.63315
    endloop
  endfacet
  facet normal -0.672806 -0.168399 -0.720399
    outer loop
      vertex 3.36158 -11.25 6.63315
      vertex 1.8567 0 5.40883
      vertex 3.30465 0 4.05654
    endloop
  endfacet
  facet normal -0.20055 -0.168399 -0.965102
    outer loop
      vertex 7.13593 -11.25 4.67744
      vertex 5.06375 0 3.14505
      vertex 7.00354 0 2.74196
    endloop
  endfacet
  facet normal 0.0672675 -0.168399 -0.983421
    outer loop
      vertex 7.13593 -11.25 4.67744
      vertex 7.00354 0 2.74196
      vertex 8.58544 -11.25 4.77659
    endloop
  endfacet
  facet normal 0.568445 -0.168399 -0.805303
    outer loop
      vertex 11.1414 -11.25 6.10099
      vertex 9.95445 -11.25 5.26313
      vertex 10.847 0 3.54063
    endloop
  endfacet
  facet normal 0.568445 -0.168399 -0.805303
    outer loop
      vertex 11.1414 -11.25 6.10099
      vertex 10.847 0 3.54063
      vertex 12.4656 0 4.68317
    endloop
  endfacet
  facet normal 0.976538 -0.168399 -0.134222
    outer loop
      vertex 14.775 0 10
      vertex 12.6372 -11.25 8.56063
      vertex 14.5052 0 8.03723
    endloop
  endfacet
  facet normal 0.976538 -0.168399 -0.134222
    outer loop
      vertex 12.835 -11.25 10
      vertex 12.6372 -11.25 8.56063
      vertex 14.775 0 10
    endloop
  endfacet
  facet normal -1.6918e-07 -1 8.14139e-07
    outer loop
      vertex 5.71342 -11.25 15.027
      vertex 3.36158 -11.25 13.3669
      vertex 7.13593 -11.25 15.3226
    endloop
  endfacet
  facet normal -0.200551 -0.168399 0.965102
    outer loop
      vertex 7.13593 -11.25 15.3226
      vertex 5.06375 0 16.8549
      vertex 5.71342 -11.25 15.027
    endloop
  endfacet
  facet normal -0.923879 -1.31218e-08 -0.382684
    outer loop
      vertex 9.21473 -11.25 11.7147
      vertex 9.50673 3 11.0098
      vertex 9.80662 -11.25 10.2858
    endloop
  endfacet
  facet normal -0.92388 0 -0.382683
    outer loop
      vertex 9.50673 3 11.0098
      vertex 9.21473 -11.25 11.7147
      vertex 9.21473 3 11.7147
    endloop
  endfacet
  facet normal -0.382684 0 -0.923879
    outer loop
      vertex 7.5 -11.25 12.425
      vertex 9.21473 3 11.7147
      vertex 9.21473 -11.25 11.7147
    endloop
  endfacet
  facet normal -0.382684 0 -0.923879
    outer loop
      vertex 9.21473 3 11.7147
      vertex 7.5 -11.25 12.425
      vertex 7.5 3 12.425
    endloop
  endfacet
  facet normal -0.923879 -2.56109e-08 -0.382684
    outer loop
      vertex 9.80662 -11.25 10.2858
      vertex 9.925 3 10
      vertex 9.925 -11.25 10
    endloop
  endfacet
  facet normal -0.923879 -1.47312e-08 -0.382684
    outer loop
      vertex 9.925 3 10
      vertex 9.80662 -11.25 10.2858
      vertex 9.50673 3 11.0098
    endloop
  endfacet
  facet normal 0.382683 0 -0.92388
    outer loop
      vertex 5.78527 -11.25 11.7147
      vertex 7.5 3 12.425
      vertex 7.5 -11.25 12.425
    endloop
  endfacet
  facet normal 0.382683 0 -0.92388
    outer loop
      vertex 7.5 3 12.425
      vertex 5.78527 -11.25 11.7147
      vertex 5.78527 3 11.7147
    endloop
  endfacet
  facet normal 0.923879 2.56109e-08 0.382684
    outer loop
      vertex 5.075 -11.25 10
      vertex 5.367 3 9.29505
      vertex 5.075 3 10
    endloop
  endfacet
  facet normal 0.92388 -4.8171e-09 0.382683
    outer loop
      vertex 5.367 3 9.29505
      vertex 5.075 -11.25 10
      vertex 5.66689 -11.25 8.57105
    endloop
  endfacet
  facet normal -0.923879 0 0.382684
    outer loop
      vertex 9.33311 -11.25 8.57105
      vertex 9.21473 3 8.28527
      vertex 9.21473 -11.25 8.28527
    endloop
  endfacet
  facet normal -0.923879 -3.63131e-09 0.382684
    outer loop
      vertex 9.21473 3 8.28527
      vertex 9.33311 -11.25 8.57105
      vertex 9.633 3 9.29505
    endloop
  endfacet
  facet normal -0.92388 2.6098e-08 0.382683
    outer loop
      vertex 9.925 -11.25 10
      vertex 9.633 3 9.29505
      vertex 9.33311 -11.25 8.57105
    endloop
  endfacet
  facet normal -0.92388 2.56109e-08 0.382683
    outer loop
      vertex 9.633 3 9.29505
      vertex 9.925 -11.25 10
      vertex 9.925 3 10
    endloop
  endfacet
  facet normal 0.382684 0 0.923879
    outer loop
      vertex 5.78527 3 8.28527
      vertex 7.5 -11.25 7.575
      vertex 7.5 3 7.575
    endloop
  endfacet
  facet normal 0.382684 0 0.923879
    outer loop
      vertex 7.5 -11.25 7.575
      vertex 5.78527 3 8.28527
      vertex 5.78527 -11.25 8.28527
    endloop
  endfacet
  facet normal 0.923879 0 -0.382684
    outer loop
      vertex 5.78527 -11.25 11.7147
      vertex 5.49327 3 11.0098
      vertex 5.78527 3 11.7147
    endloop
  endfacet
  facet normal 0.923879 1.77933e-08 -0.382684
    outer loop
      vertex 5.49327 3 11.0098
      vertex 5.78527 -11.25 11.7147
      vertex 5.19338 -11.25 10.2858
    endloop
  endfacet
  facet normal 0.92388 -5.98168e-09 -0.382683
    outer loop
      vertex 5.19338 -11.25 10.2858
      vertex 5.075 3 10
      vertex 5.49327 3 11.0098
    endloop
  endfacet
  facet normal 0.923879 -2.56109e-08 -0.382684
    outer loop
      vertex 5.075 3 10
      vertex 5.19338 -11.25 10.2858
      vertex 5.075 -11.25 10
    endloop
  endfacet
  facet normal -0.382683 0 0.92388
    outer loop
      vertex 7.5 3 7.575
      vertex 9.21473 -11.25 8.28527
      vertex 9.21473 3 8.28527
    endloop
  endfacet
  facet normal -0.382683 0 0.92388
    outer loop
      vertex 9.21473 -11.25 8.28527
      vertex 7.5 3 7.575
      vertex 7.5 -11.25 7.575
    endloop
  endfacet
  facet normal 0.92388 -1.23809e-08 0.382683
    outer loop
      vertex 5.66689 -11.25 8.57105
      vertex 5.78527 3 8.28527
      vertex 5.367 3 9.29505
    endloop
  endfacet
  facet normal 0.923879 0 0.382684
    outer loop
      vertex 5.78527 3 8.28527
      vertex 5.66689 -11.25 8.57105
      vertex 5.78527 -11.25 8.28527
    endloop
  endfacet
endsolid OpenSCAD_Model
