solid OpenSCAD_Model
  facet normal -1 0 0
    outer loop
      vertex 0 15 0
      vertex 0 4 4
      vertex 0 15 4
    endloop
  endfacet
  facet normal -1 -0 0
    outer loop
      vertex 0 4 4
      vertex 0 0 0
      vertex 0 4 29.5
    endloop
  endfacet
  facet normal -1 0 0
    outer loop
      vertex 0 0 0
      vertex 0 4 4
      vertex 0 15 0
    endloop
  endfacet
  facet normal -1 0 0
    outer loop
      vertex 0 4 29.5
      vertex 0 15 33.5
      vertex 0 15 29.5
    endloop
  endfacet
  facet normal -1 0 0
    outer loop
      vertex 0 4 29.5
      vertex 0 0 33.5
      vertex 0 15 33.5
    endloop
  endfacet
  facet normal -1 0 0
    outer loop
      vertex 0 0 33.5
      vertex 0 4 29.5
      vertex 0 0 0
    endloop
  endfacet
  facet normal -0 0 1
    outer loop
      vertex 0 15 33.5
      vertex 15 0 33.5
      vertex 15 15 33.5
    endloop
  endfacet
  facet normal 0 0 1
    outer loop
      vertex 15 0 33.5
      vertex 0 15 33.5
      vertex 0 0 33.5
    endloop
  endfacet
  facet normal 1 0 0
    outer loop
      vertex 15 15 33.5
      vertex 15 4 29.5
      vertex 15 15 29.5
    endloop
  endfacet
  facet normal 1 -0 0
    outer loop
      vertex 15 0 33.5
      vertex 15 4 29.5
      vertex 15 15 33.5
    endloop
  endfacet
  facet normal 1 0 0
    outer loop
      vertex 15 0 4
      vertex 15 4 29.5
      vertex 15 0 33.5
    endloop
  endfacet
  facet normal 1 0 0
    outer loop
      vertex 15 4 29.5
      vertex 15 0 4
      vertex 15 4 4
    endloop
  endfacet
  facet normal 0 1 -0
    outer loop
      vertex 15 4 4
      vertex 0 4 29.5
      vertex 15 4 29.5
    endloop
  endfacet
  facet normal 0 1 0
    outer loop
      vertex 0 4 29.5
      vertex 15 4 4
      vertex 0 4 4
    endloop
  endfacet
  facet normal 0 0 -1
    outer loop
      vertex 0 0 0
      vertex 71 15 0
      vertex 71 0 0
    endloop
  endfacet
  facet normal -0 0 -1
    outer loop
      vertex 71 15 0
      vertex 0 0 0
      vertex 0 15 0
    endloop
  endfacet
  facet normal 0 -1 0
    outer loop
      vertex 0 0 33.5
      vertex 15 0 4
      vertex 15 0 33.5
    endloop
  endfacet
  facet normal 0 -1 -0
    outer loop
      vertex 15 0 4
      vertex 0 0 0
      vertex 56 0 4
    endloop
  endfacet
  facet normal 0 -1 0
    outer loop
      vertex 0 0 0
      vertex 15 0 4
      vertex 0 0 33.5
    endloop
  endfacet
  facet normal 0 -1 0
    outer loop
      vertex 56 0 4
      vertex 71 0 33.5
      vertex 56 0 33.5
    endloop
  endfacet
  facet normal 0 -1 0
    outer loop
      vertex 56 0 4
      vertex 71 0 0
      vertex 71 0 33.5
    endloop
  endfacet
  facet normal 0 -1 0
    outer loop
      vertex 71 0 0
      vertex 56 0 4
      vertex 0 0 0
    endloop
  endfacet
  facet normal 0 0 1
    outer loop
      vertex 71 15 4
      vertex 56 4 4
      vertex 71 4 4
    endloop
  endfacet
  facet normal 0 0 1
    outer loop
      vertex 56 4 4
      vertex 15 4 4
      vertex 56 0 4
    endloop
  endfacet
  facet normal 0 0 1
    outer loop
      vertex 71 15 4
      vertex 15 4 4
      vertex 56 4 4
    endloop
  endfacet
  facet normal -0 0 1
    outer loop
      vertex 0 15 4
      vertex 15 4 4
      vertex 71 15 4
    endloop
  endfacet
  facet normal 0 0 1
    outer loop
      vertex 15 4 4
      vertex 0 15 4
      vertex 0 4 4
    endloop
  endfacet
  facet normal 0 0 1
    outer loop
      vertex 56 0 4
      vertex 15 4 4
      vertex 15 0 4
    endloop
  endfacet
  facet normal 0 1 -0
    outer loop
      vertex 71 15 0
      vertex 0 15 4
      vertex 71 15 4
    endloop
  endfacet
  facet normal 0 1 0
    outer loop
      vertex 0 15 4
      vertex 71 15 0
      vertex 0 15 0
    endloop
  endfacet
  facet normal 0 0 -1
    outer loop
      vertex 0 4 29.5
      vertex 15 15 29.5
      vertex 15 4 29.5
    endloop
  endfacet
  facet normal -0 0 -1
    outer loop
      vertex 15 15 29.5
      vertex 0 4 29.5
      vertex 0 15 29.5
    endloop
  endfacet
  facet normal 0 1 -0
    outer loop
      vertex 15 15 29.5
      vertex 0 15 33.5
      vertex 15 15 33.5
    endloop
  endfacet
  facet normal 0 1 0
    outer loop
      vertex 0 15 33.5
      vertex 15 15 29.5
      vertex 0 15 29.5
    endloop
  endfacet
  facet normal -1 0 0
    outer loop
      vertex 56 4 4
      vertex 56 0 4
      vertex 56 4 29.5
    endloop
  endfacet
  facet normal -1 0 0
    outer loop
      vertex 56 4 29.5
      vertex 56 15 33.5
      vertex 56 15 29.5
    endloop
  endfacet
  facet normal -1 0 0
    outer loop
      vertex 56 4 29.5
      vertex 56 0 33.5
      vertex 56 15 33.5
    endloop
  endfacet
  facet normal -1 0 0
    outer loop
      vertex 56 0 33.5
      vertex 56 4 29.5
      vertex 56 0 4
    endloop
  endfacet
  facet normal -0 0 1
    outer loop
      vertex 56 15 33.5
      vertex 71 0 33.5
      vertex 71 15 33.5
    endloop
  endfacet
  facet normal 0 0 1
    outer loop
      vertex 71 0 33.5
      vertex 56 15 33.5
      vertex 56 0 33.5
    endloop
  endfacet
  facet normal 1 0 0
    outer loop
      vertex 71 15 33.5
      vertex 71 4 29.5
      vertex 71 15 29.5
    endloop
  endfacet
  facet normal 1 0 0
    outer loop
      vertex 71 4 29.5
      vertex 71 0 33.5
      vertex 71 4 4
    endloop
  endfacet
  facet normal 1 -0 0
    outer loop
      vertex 71 0 33.5
      vertex 71 4 29.5
      vertex 71 15 33.5
    endloop
  endfacet
  facet normal 1 -0 0
    outer loop
      vertex 71 4 4
      vertex 71 15 0
      vertex 71 15 4
    endloop
  endfacet
  facet normal 1 0 0
    outer loop
      vertex 71 4 4
      vertex 71 0 0
      vertex 71 15 0
    endloop
  endfacet
  facet normal 1 0 0
    outer loop
      vertex 71 0 0
      vertex 71 4 4
      vertex 71 0 33.5
    endloop
  endfacet
  facet normal 0 1 -0
    outer loop
      vertex 71 4 4
      vertex 56 4 29.5
      vertex 71 4 29.5
    endloop
  endfacet
  facet normal 0 1 0
    outer loop
      vertex 56 4 29.5
      vertex 71 4 4
      vertex 56 4 4
    endloop
  endfacet
  facet normal 0 0 -1
    outer loop
      vertex 56 4 29.5
      vertex 71 15 29.5
      vertex 71 4 29.5
    endloop
  endfacet
  facet normal -0 0 -1
    outer loop
      vertex 71 15 29.5
      vertex 56 4 29.5
      vertex 56 15 29.5
    endloop
  endfacet
  facet normal 0 1 -0
    outer loop
      vertex 71 15 29.5
      vertex 56 15 33.5
      vertex 71 15 33.5
    endloop
  endfacet
  facet normal 0 1 0
    outer loop
      vertex 56 15 33.5
      vertex 71 15 29.5
      vertex 56 15 29.5
    endloop
  endfacet
endsolid OpenSCAD_Model
