solid OpenSCAD_Model
  facet normal -1 0 0
    outer loop
      vertex 0 15 0
      vertex 0 3 3
      vertex 0 15 3
    endloop
  endfacet
  facet normal -1 -0 0
    outer loop
      vertex 0 3 3
      vertex 0 0 0
      vertex 0 3 29.5
    endloop
  endfacet
  facet normal -1 0 0
    outer loop
      vertex 0 0 0
      vertex 0 3 3
      vertex 0 15 0
    endloop
  endfacet
  facet normal -1 0 0
    outer loop
      vertex 0 3 29.5
      vertex 0 15 32.5
      vertex 0 15 29.5
    endloop
  endfacet
  facet normal -1 0 0
    outer loop
      vertex 0 3 29.5
      vertex 0 0 32.5
      vertex 0 15 32.5
    endloop
  endfacet
  facet normal -1 0 0
    outer loop
      vertex 0 0 32.5
      vertex 0 3 29.5
      vertex 0 0 0
    endloop
  endfacet
  facet normal -0 0 1
    outer loop
      vertex 0 15 32.5
      vertex 15 0 32.5
      vertex 15 15 32.5
    endloop
  endfacet
  facet normal 0 0 1
    outer loop
      vertex 15 0 32.5
      vertex 0 15 32.5
      vertex 0 0 32.5
    endloop
  endfacet
  facet normal 1 0 0
    outer loop
      vertex 15 15 32.5
      vertex 15 3 29.5
      vertex 15 15 29.5
    endloop
  endfacet
  facet normal 1 -0 0
    outer loop
      vertex 15 0 32.5
      vertex 15 3 29.5
      vertex 15 15 32.5
    endloop
  endfacet
  facet normal 1 0 0
    outer loop
      vertex 15 0 3
      vertex 15 3 29.5
      vertex 15 0 32.5
    endloop
  endfacet
  facet normal 1 0 0
    outer loop
      vertex 15 3 29.5
      vertex 15 0 3
      vertex 15 3 3
    endloop
  endfacet
  facet normal 0 1 -0
    outer loop
      vertex 15 3 3
      vertex 0 3 29.5
      vertex 15 3 29.5
    endloop
  endfacet
  facet normal 0 1 0
    outer loop
      vertex 0 3 29.5
      vertex 15 3 3
      vertex 0 3 3
    endloop
  endfacet
  facet normal 0 0 -1
    outer loop
      vertex 0 0 0
      vertex 71 15 0
      vertex 71 0 0
    endloop
  endfacet
  facet normal -0 0 -1
    outer loop
      vertex 71 15 0
      vertex 0 0 0
      vertex 0 15 0
    endloop
  endfacet
  facet normal 0 -1 0
    outer loop
      vertex 0 0 32.5
      vertex 15 0 3
      vertex 15 0 32.5
    endloop
  endfacet
  facet normal 0 -1 -0
    outer loop
      vertex 15 0 3
      vertex 0 0 0
      vertex 56 0 3
    endloop
  endfacet
  facet normal 0 -1 0
    outer loop
      vertex 0 0 0
      vertex 15 0 3
      vertex 0 0 32.5
    endloop
  endfacet
  facet normal 0 -1 0
    outer loop
      vertex 56 0 3
      vertex 71 0 32.5
      vertex 56 0 32.5
    endloop
  endfacet
  facet normal 0 -1 0
    outer loop
      vertex 56 0 3
      vertex 71 0 0
      vertex 71 0 32.5
    endloop
  endfacet
  facet normal 0 -1 0
    outer loop
      vertex 71 0 0
      vertex 56 0 3
      vertex 0 0 0
    endloop
  endfacet
  facet normal 0 0 1
    outer loop
      vertex 71 15 3
      vertex 56 3 3
      vertex 71 3 3
    endloop
  endfacet
  facet normal 0 0 1
    outer loop
      vertex 56 3 3
      vertex 15 3 3
      vertex 56 0 3
    endloop
  endfacet
  facet normal 0 0 1
    outer loop
      vertex 71 15 3
      vertex 15 3 3
      vertex 56 3 3
    endloop
  endfacet
  facet normal -0 0 1
    outer loop
      vertex 0 15 3
      vertex 15 3 3
      vertex 71 15 3
    endloop
  endfacet
  facet normal 0 0 1
    outer loop
      vertex 15 3 3
      vertex 0 15 3
      vertex 0 3 3
    endloop
  endfacet
  facet normal 0 0 1
    outer loop
      vertex 56 0 3
      vertex 15 3 3
      vertex 15 0 3
    endloop
  endfacet
  facet normal 0 1 -0
    outer loop
      vertex 71 15 0
      vertex 0 15 3
      vertex 71 15 3
    endloop
  endfacet
  facet normal 0 1 0
    outer loop
      vertex 0 15 3
      vertex 71 15 0
      vertex 0 15 0
    endloop
  endfacet
  facet normal 0 1 -0
    outer loop
      vertex 15 15 29.5
      vertex 0 15 32.5
      vertex 15 15 32.5
    endloop
  endfacet
  facet normal 0 1 0
    outer loop
      vertex 0 15 32.5
      vertex 15 15 29.5
      vertex 0 15 29.5
    endloop
  endfacet
  facet normal 0 0 -1
    outer loop
      vertex 0 3 29.5
      vertex 15 15 29.5
      vertex 15 3 29.5
    endloop
  endfacet
  facet normal -0 0 -1
    outer loop
      vertex 15 15 29.5
      vertex 0 3 29.5
      vertex 0 15 29.5
    endloop
  endfacet
  facet normal -1 0 0
    outer loop
      vertex 56 3 3
      vertex 56 0 3
      vertex 56 3 29.5
    endloop
  endfacet
  facet normal -1 0 0
    outer loop
      vertex 56 3 29.5
      vertex 56 15 32.5
      vertex 56 15 29.5
    endloop
  endfacet
  facet normal -1 0 0
    outer loop
      vertex 56 3 29.5
      vertex 56 0 32.5
      vertex 56 15 32.5
    endloop
  endfacet
  facet normal -1 0 0
    outer loop
      vertex 56 0 32.5
      vertex 56 3 29.5
      vertex 56 0 3
    endloop
  endfacet
  facet normal -0 0 1
    outer loop
      vertex 56 15 32.5
      vertex 71 0 32.5
      vertex 71 15 32.5
    endloop
  endfacet
  facet normal 0 0 1
    outer loop
      vertex 71 0 32.5
      vertex 56 15 32.5
      vertex 56 0 32.5
    endloop
  endfacet
  facet normal 1 0 0
    outer loop
      vertex 71 15 32.5
      vertex 71 3 29.5
      vertex 71 15 29.5
    endloop
  endfacet
  facet normal 1 0 0
    outer loop
      vertex 71 3 29.5
      vertex 71 0 32.5
      vertex 71 3 3
    endloop
  endfacet
  facet normal 1 -0 0
    outer loop
      vertex 71 0 32.5
      vertex 71 3 29.5
      vertex 71 15 32.5
    endloop
  endfacet
  facet normal 1 -0 0
    outer loop
      vertex 71 3 3
      vertex 71 15 0
      vertex 71 15 3
    endloop
  endfacet
  facet normal 1 0 0
    outer loop
      vertex 71 3 3
      vertex 71 0 0
      vertex 71 15 0
    endloop
  endfacet
  facet normal 1 0 0
    outer loop
      vertex 71 0 0
      vertex 71 3 3
      vertex 71 0 32.5
    endloop
  endfacet
  facet normal 0 1 -0
    outer loop
      vertex 71 3 3
      vertex 56 3 29.5
      vertex 71 3 29.5
    endloop
  endfacet
  facet normal 0 1 0
    outer loop
      vertex 56 3 29.5
      vertex 71 3 3
      vertex 56 3 3
    endloop
  endfacet
  facet normal 0 0 -1
    outer loop
      vertex 56 3 29.5
      vertex 71 15 29.5
      vertex 71 3 29.5
    endloop
  endfacet
  facet normal -0 0 -1
    outer loop
      vertex 71 15 29.5
      vertex 56 3 29.5
      vertex 56 15 29.5
    endloop
  endfacet
  facet normal 0 1 -0
    outer loop
      vertex 71 15 29.5
      vertex 56 15 32.5
      vertex 71 15 32.5
    endloop
  endfacet
  facet normal 0 1 0
    outer loop
      vertex 56 15 32.5
      vertex 71 15 29.5
      vertex 56 15 29.5
    endloop
  endfacet
endsolid OpenSCAD_Model
