<?xml version="1.0" encoding="UTF-8" standalone="no"?>
<!-- Created with Inkscape (http://www.inkscape.org/) -->

<svg
   xmlns:dc="http://purl.org/dc/elements/1.1/"
   xmlns:cc="http://creativecommons.org/ns#"
   xmlns:rdf="http://www.w3.org/1999/02/22-rdf-syntax-ns#"
   xmlns:svg="http://www.w3.org/2000/svg"
   xmlns="http://www.w3.org/2000/svg"
   xmlns:xlink="http://www.w3.org/1999/xlink"
   xmlns:sodipodi="http://sodipodi.sourceforge.net/DTD/sodipodi-0.dtd"
   xmlns:inkscape="http://www.inkscape.org/namespaces/inkscape"
   id="svg26222"
   sodipodi:docname="logo.svg"
   viewBox="0 0 400.59443 292.54086"
   version="1.1"
   inkscape:version="0.48.4 r9939"
   width="100%"
   height="100%"
   inkscape:export-filename="logo.png"
   inkscape:export-xdpi="90"
   inkscape:export-ydpi="90">
  <defs
     id="defs26224">
    <linearGradient
       id="linearGradient31972"
       y2="2806.5"
       gradientUnits="userSpaceOnUse"
       x2="-2680.5"
       y1="2842.6001"
       x1="-2680.5"
       inkscape:collect="always">
      <stop
         id="stop25120-6"
         style="stop-color:#999999"
         offset="0" />
      <stop
         id="stop25122-0"
         style="stop-color:#999999;stop-opacity:0"
         offset="1" />
    </linearGradient>
    <radialGradient
       id="radialGradient31974"
       gradientUnits="userSpaceOnUse"
       cy="2822.3999"
       cx="-2674.8999"
       gradientTransform="matrix(1,0,0,0.41987,0,1637.4)"
       r="13.929"
       inkscape:collect="always">
      <stop
         id="stop25128-4"
         style="stop-color:#ffffff"
         offset="0" />
      <stop
         id="stop25130-2"
         style="stop-color:#ffffff;stop-opacity:0"
         offset="1" />
    </radialGradient>
    <linearGradient
       id="linearGradient31988"
       y2="2823.3999"
       gradientUnits="userSpaceOnUse"
       x2="-2611.3"
       gradientTransform="matrix(0.28222,0,0,0.28222,740.06,32.49)"
       y1="2765"
       x1="-2650.8"
       inkscape:collect="always">
      <stop
         id="stop25244-0-5-9"
         style="stop-color:#e6e6e6"
         offset="0" />
      <stop
         id="stop25246-7-7-83"
         style="stop-color:#e6e6e6;stop-opacity:0"
         offset="1" />
    </linearGradient>
    <linearGradient
       id="linearGradient32080"
       y2="2821.8"
       gradientUnits="userSpaceOnUse"
       x2="-2669.5"
       gradientTransform="matrix(0.032719,0,0,-0.032719,60.044,851.21)"
       y1="2839.5"
       x1="-2669.5"
       inkscape:collect="always">
      <stop
         id="stop25802-1-0-9-2"
         style="stop-color:#ffffff"
         offset="0" />
      <stop
         id="stop25804-2-5-6-9"
         style="stop-color:#ffffff;stop-opacity:0"
         offset="1" />
    </linearGradient>
    <linearGradient
       inkscape:collect="always"
       xlink:href="#linearGradient31972"
       id="linearGradient7913"
       gradientUnits="userSpaceOnUse"
       x1="-2680.5"
       y1="2842.6001"
       x2="-2680.5"
       y2="2806.5" />
    <radialGradient
       inkscape:collect="always"
       xlink:href="#radialGradient31974"
       id="radialGradient7915"
       gradientUnits="userSpaceOnUse"
       gradientTransform="matrix(1,0,0,0.41987,0,1637.4)"
       cx="-2674.8999"
       cy="2822.3999"
       r="13.929" />
    <linearGradient
       inkscape:collect="always"
       xlink:href="#linearGradient31988"
       id="linearGradient7917"
       gradientUnits="userSpaceOnUse"
       gradientTransform="matrix(1.9918816,0,0,1.9918816,5494.6133,-5150.4038)"
       x1="-2650.8"
       y1="2765"
       x2="-2611.3"
       y2="2823.3999" />
    <linearGradient
       inkscape:collect="always"
       xlink:href="#linearGradient32080"
       id="linearGradient7919"
       gradientUnits="userSpaceOnUse"
       gradientTransform="matrix(2.1160666,0,0,-2.1160666,5936.4388,6419.6003)"
       x1="-2669.5"
       y1="2839.5"
       x2="-2669.5"
       y2="2821.8" />
  </defs>
  <sodipodi:namedview
     id="base"
     bordercolor="#666666"
     inkscape:pageshadow="2"
     inkscape:window-y="27"
     pagecolor="#ffffff"
     inkscape:window-height="704"
     inkscape:window-maximized="1"
     inkscape:zoom="1.7433462"
     inkscape:window-x="0"
     showgrid="false"
     borderopacity="1.0"
     inkscape:current-layer="layer1"
     inkscape:cx="200.29721"
     inkscape:cy="146.27043"
     inkscape:window-width="1366"
     inkscape:pageopacity="0.0"
     inkscape:document-units="px"
     fit-margin-top="0"
     fit-margin-left="0"
     fit-margin-right="0"
     fit-margin-bottom="0"
     borderlayer="true"
     inkscape:showpageshadow="false" />
  <g
     id="layer1"
     inkscape:label="Ebene 1"
     inkscape:groupmode="layer"
     transform="translate(-273.99854,-236.77375)">
    <text
       sodipodi:linespacing="125%"
       id="text4524"
       y="515.26215"
       x="269.54529"
       style="font-size:67.55742645px;font-style:normal;font-weight:normal;line-height:125%;letter-spacing:0px;word-spacing:0px;fill:#000000;fill-opacity:1;stroke:none;font-family:Sans"
       xml:space="preserve"><tspan
         style="font-style:normal;font-variant:normal;font-weight:normal;font-stretch:normal;font-family:DejaVu Sans;-inkscape-font-specification:DejaVu Sans"
         y="515.26215"
         x="269.54529"
         id="tspan4526"
         sodipodi:role="line">SmartLights</tspan></text>
    <g
       id="g7874"
       transform="matrix(2.112902,0,0,2.112902,-296.48188,-589.0753)">
      <g
         id="g4528"
         transform="matrix(1.004,0,0,1.004,85.254301,-20.285)">
        <path
           id="path25078-6-3-6-1-1"
           sodipodi:rx="19.642857"
           sodipodi:ry="19.642857"
           style="fill:#000000;fill-rule:evenodd"
           sodipodi:type="arc"
           d="m -2661.4287,2809.5051 c 0,10.8485 -8.7944,19.6429 -19.6428,19.6429 -10.8485,0 -19.6429,-8.7944 -19.6429,-19.6429 0,-10.8484 8.7944,-19.6428 19.6429,-19.6428 10.8484,0 19.6428,8.7944 19.6428,19.6428 z"
           transform="matrix(2.4445755,0,0,2.4445755,6832.5095,-6410.5219)"
           sodipodi:cy="2809.5051"
           sodipodi:cx="-2681.0715" />
        <path
           id="path25078-6-6-9-0-7-4"
           sodipodi:rx="19.642857"
           sodipodi:ry="19.642857"
           style="fill:url(#linearGradient7913);fill-rule:evenodd"
           sodipodi:type="arc"
           d="m -2661.4287,2809.5051 c 0,10.8485 -8.7944,19.6429 -19.6428,19.6429 -10.8485,0 -19.6429,-8.7944 -19.6429,-19.6429 0,-10.8484 8.7944,-19.6428 19.6429,-19.6428 10.8484,0 19.6428,8.7944 19.6428,19.6428 z"
           transform="matrix(2.4445755,0,0,2.4445755,6832.5095,-6410.5219)"
           sodipodi:cy="2809.5051"
           sodipodi:cx="-2681.0715" />
        <path
           id="path25078-63-4-2-3"
           sodipodi:rx="19.642857"
           sodipodi:ry="19.642857"
           style="fill:#44aa00;fill-rule:evenodd"
           sodipodi:type="arc"
           d="m -2661.4287,2809.5051 c 0,10.8485 -8.7944,19.6429 -19.6428,19.6429 -10.8485,0 -19.6429,-8.7944 -19.6429,-19.6429 0,-10.8484 8.7944,-19.6428 19.6429,-19.6428 10.8484,0 19.6428,8.7944 19.6428,19.6428 z"
           transform="matrix(2.2707661,0,0,2.2707661,6366.471,-5922.1938)"
           sodipodi:cy="2809.5051"
           sodipodi:cx="-2681.0715" />
        <path
           id="path25098-6-4-3-7"
           sodipodi:rx="13.928572"
           sodipodi:ry="5.8482141"
           style="opacity:0.59596001;fill:url(#radialGradient7915);fill-rule:evenodd"
           sodipodi:type="arc"
           d="m -2660.9821,2822.4067 c 0,3.2299 -6.236,5.8483 -13.9285,5.8483 -7.6926,0 -13.9286,-2.6184 -13.9286,-5.8483 0,-3.2298 6.236,-5.8482 13.9286,-5.8482 7.6925,0 13.9285,2.6184 13.9285,5.8482 z"
           transform="matrix(2.1397758,0,0,3.2762048,6002.0639,-8764.6583)"
           sodipodi:cy="2822.4067"
           sodipodi:cx="-2674.9106" />
        <path
           id="path25078-62-8-7-7-0"
           d="m 278.27669,415.92437 c -22.36168,0 -40.4525,18.15519 -40.4525,40.51686 0,10.47439 3.97307,19.99452 10.49934,27.18289 -5.46249,-6.90112 -8.69621,-15.63676 -8.69621,-25.12148 0,-22.36168 18.09082,-40.4525 40.4525,-40.4525 11.82291,0 22.42122,5.12383 29.82361,13.20524 -7.41849,-9.3069 -18.80048,-15.33101 -31.62755,-15.33101 z"
           style="opacity:0.59596001;fill:#ffffff;fill-rule:evenodd"
           inkscape:connector-curvature="0" />
        <path
           id="path25078-6-6-6-9-4-5-3-9"
           d="m 278.32377,412.56531 c -24.853,0 -45.00473,20.15102 -45.00473,45.00402 0,24.8537 20.15102,45.00472 45.00473,45.00472 24.85299,0 45.00472,-20.15102 45.00472,-45.00472 0,-24.853 -20.15102,-45.00402 -45.00472,-45.00402 z m 0,1.99188 c 23.74208,0 43.01227,19.2709 43.01227,43.01228 0,23.74208 -19.2709,42.95016 -43.01227,42.95016 -23.74209,0 -43.01299,-19.20879 -43.01299,-42.95016 0,-23.74209 19.2709,-43.01228 43.01299,-43.01228 z"
           style="fill:url(#linearGradient7917);fill-rule:evenodd"
           inkscape:connector-curvature="0" />
        <path
           d="m 238.34132,459.89674 c -0.15522,-1.44869 -0.26517,-2.94266 -0.26517,-4.43016 0,-22.28147 18.05567,-40.33714 40.33715,-40.33714 22.28146,0 40.33713,18.05567 40.33713,40.33714 0,1.4875 -0.1099,2.98793 -0.26517,4.43016 -10.09301,-9.32922 -24.31998,-15.14276 -40.07261,-15.14276 -15.75263,0 -29.97896,5.81419 -40.07263,15.14276 z"
           inkscape:connector-curvature="0"
           style="fill:url(#linearGradient7919);fill-rule:evenodd"
           id="path25078-3-2-5-5-5" />
      </g>
      <path
         inkscape:connector-curvature="0"
         id="path4249-9-6-2-3"
         d="m 343,450.5 a 2.8986696,2.8986696 0 0 0 -2.46875,4.15625 c 2.69713,5.77639 8.58479,9.18872 15.125,11.09375 6.54021,1.90503 13.9692,2.35256 20.65625,1.71875 a 2.8986696,2.8986696 0 1 0 -0.5625,-5.75 c -6.00798,0.56944 -12.83961,0.1084 -18.46875,-1.53125 -5.62914,-1.63965 -9.83814,-4.40958 -11.5,-7.96875 A 2.8986696,2.8986696 0 0 0 343,450.5 z"
         style="font-size:medium;font-style:normal;font-variant:normal;font-weight:normal;font-stretch:normal;text-indent:0;text-align:start;text-decoration:none;line-height:normal;letter-spacing:normal;word-spacing:normal;text-transform:none;direction:ltr;block-progression:tb;writing-mode:lr-tb;text-anchor:start;baseline-shift:baseline;color:#000000;fill:#000000;fill-opacity:1;stroke:none;stroke-width:5.79675961;marker:none;visibility:visible;display:inline;overflow:visible;enable-background:accumulate;font-family:Sans;-inkscape-font-specification:Sans" />
      <path
         inkscape:connector-curvature="0"
         id="path4380-9-8-8"
         d="m 350.9375,417.5625 c -5.90328,0 -10.93818,4.37943 -11.78125,10.21875 a 2.9035606,2.9035606 0 1 0 5.75,0.8125 c 0.43777,-3.03212 2.97107,-5.25 6.03125,-5.25 3.06174,0.005 5.62497,2.21961 6.0625,5.25 a 2.9035606,2.9035606 0 1 0 5.75,-0.8125 c -0.84273,-5.83677 -5.88389,-10.20992 -11.78125,-10.21875 a 2.8986696,2.8986696 0 0 0 -0.0312,0 z"
         style="font-size:medium;font-style:normal;font-variant:normal;font-weight:normal;font-stretch:normal;text-indent:0;text-align:start;text-decoration:none;line-height:normal;letter-spacing:normal;word-spacing:normal;text-transform:none;direction:ltr;block-progression:tb;writing-mode:lr-tb;text-anchor:start;baseline-shift:baseline;color:#000000;fill:#000000;fill-opacity:1;stroke:none;stroke-width:5.79675961;marker:none;visibility:visible;display:inline;overflow:visible;enable-background:accumulate;font-family:Sans;-inkscape-font-specification:Sans" />
      <path
         inkscape:connector-curvature="0"
         style="color:#000000;fill:#000000;fill-opacity:1;fill-rule:evenodd;stroke:none;visibility:visible;display:inline;overflow:visible;enable-background:accumulate"
         d="m 389.4175,423.81545 c 0,3.2539 -2.63795,5.89179 -5.89203,5.89179 -3.25408,0 -5.89204,-2.63789 -5.89204,-5.89179 0,-3.25425 2.63796,-5.89214 5.89204,-5.89214 3.25408,0 5.89203,2.63789 5.89203,5.89214 z"
         id="path7864" />
    </g>
  </g>
  <metadata
     id="metadata3727">
    <rdf:RDF>
      <cc:Work>
        <dc:format>image/svg+xml</dc:format>
        <dc:type
           rdf:resource="http://purl.org/dc/dcmitype/StillImage" />
        <cc:license
           rdf:resource="http://creativecommons.org/licenses/publicdomain/" />
        <dc:publisher>
          <cc:Agent
             rdf:about="http://openclipart.org/">
            <dc:title>Openclipart</dc:title>
          </cc:Agent>
        </dc:publisher>
        <dc:title></dc:title>
        <dc:date>2012-09-06T15:49:36</dc:date>
        <dc:description>traffic-lights mix - red, yellow and green!</dc:description>
        <dc:source>https://openclipart.org/detail/172183/mobile-traffic-lights-threesome-by-laser_engravers-172183</dc:source>
        <dc:creator>
          <cc:Agent>
            <dc:title>laser_engravers</dc:title>
          </cc:Agent>
        </dc:creator>
        <dc:subject>
          <rdf:Bag>
            <rdf:li>Ampel</rdf:li>
            <rdf:li>Ampelanlage</rdf:li>
            <rdf:li>Baustelle</rdf:li>
            <rdf:li>green</rdf:li>
            <rdf:li>red</rdf:li>
            <rdf:li>roadwork</rdf:li>
            <rdf:li>sing</rdf:li>
            <rdf:li>trafficlights</rdf:li>
            <rdf:li>warning</rdf:li>
            <rdf:li>yellow</rdf:li>
          </rdf:Bag>
        </dc:subject>
      </cc:Work>
      <cc:License
         rdf:about="http://creativecommons.org/licenses/publicdomain/">
        <cc:permits
           rdf:resource="http://creativecommons.org/ns#Reproduction" />
        <cc:permits
           rdf:resource="http://creativecommons.org/ns#Distribution" />
        <cc:permits
           rdf:resource="http://creativecommons.org/ns#DerivativeWorks" />
      </cc:License>
    </rdf:RDF>
  </metadata>
</svg>
